<svg width="35" height="35" viewBox="0 0 35 35" fill="none" xmlns="http://www.w3.org/2000/svg">
<g clip-path="url(#clip0)">
<path d="M5.5415 13.417H26.5415C28.4746 13.417 30.0415 14.9839 30.0415 16.917V32.0837H2.0415V16.917C2.0415 14.9838 3.6083 13.417 5.5415 13.417Z" fill="#4398D1"/>
<path d="M2.0415 31.0795V32.0828H30.0415V16.9162C30.0415 16.3357 29.8974 15.7646 29.6215 15.2537C24.2081 25.6662 8.0965 29.8545 2.0415 31.0795Z" fill="#3E8CC7"/>
<path d="M3.79108 32.0833H6.12439V33.2499C6.12439 33.8945 5.60233 34.4166 4.9577 34.4166C4.31314 34.4166 3.79102 33.8946 3.79102 33.2499V32.0833H3.79108Z" fill="#1C4878"/>
<path d="M25.9581 32.0833H28.2914V33.2499C28.2914 33.8945 27.7693 34.4166 27.1247 34.4166C26.4801 34.4166 25.958 33.8946 25.958 33.2499V32.0833H25.9581Z" fill="#1C4878"/>
<path d="M30.042 18.083H31.792C32.4366 18.083 32.9587 18.6051 32.9587 19.2497C32.9587 19.8943 32.4366 20.4164 31.792 20.4164H30.042V18.083Z" fill="#DE4C3C"/>
<path d="M6.7085 2.91656C6.7085 4.20514 7.75323 5.24987 9.04181 5.24987V13.4166H23.0418V5.24987C24.3304 5.24987 25.3751 4.20514 25.3751 2.91656C25.3751 1.62799 24.3304 0.583252 23.0418 0.583252H9.04181C7.7533 0.583184 6.7085 1.62799 6.7085 2.91656Z" fill="#FDB62F"/>
<path d="M11.785 5.6647L14.7012 2.74854L13.8762 1.92357L10.96 4.83974L11.785 5.6647Z" fill="#FA962A"/>
<path d="M11.7831 10.3273L18.7827 3.32764L17.9577 2.50267L10.9581 9.50229L11.7831 10.3273Z" fill="#FA962A"/>
<path d="M14.7045 12.0811L21.1226 5.66309L20.2976 4.83812L13.8796 11.2561L14.7045 12.0811Z" fill="#FA962A"/>
<path d="M19.3671 12.0799L21.7017 9.74536L20.8767 8.92039L18.5421 11.255L19.3671 12.0799Z" fill="#FA962A"/>
<path d="M4.95861 18.0832H3.79199V16.9165C3.79199 15.9499 4.57539 15.1665 5.54199 15.1665V16.3332C5.22002 16.3332 4.95868 16.5945 4.95868 16.9165V18.0832H4.95861Z" fill="#E5E5E5"/>
<path d="M4.95868 19.2495H3.79199V25.6662H4.95868V19.2495Z" fill="#E5E5E5"/>
<path d="M30.0415 28.0005H2.0415V29.1672H30.0415V28.0005Z" fill="#1C4878"/>
<path d="M31.7918 17.5H30.6251V16.9167C30.6251 14.6615 28.797 12.8334 26.5418 12.8334H23.6251V5.775C25.2036 5.45419 26.2239 3.91474 25.9031 2.33625C25.6265 0.9759 24.4301 -0.0011603 23.0418 1.81346e-06H9.04181C7.43119 -0.00177553 6.12395 1.30314 6.12225 2.91375C6.12108 4.30206 7.09814 5.49849 8.4585 5.775V12.8333H5.54181C3.28663 12.8333 1.4585 14.6614 1.4585 16.9166V32.0833C1.4585 32.4053 1.71983 32.6666 2.04181 32.6666H3.2085V33.2499C3.2085 34.2165 3.99189 34.9999 4.9585 34.9999C5.9251 34.9999 6.7085 34.2165 6.7085 33.2499V32.6666H25.3751V33.2499C25.3751 34.2165 26.1585 34.9999 27.1251 34.9999C28.0917 34.9999 28.8751 34.2165 28.8751 33.2499V32.6666H30.0418C30.3638 32.6666 30.6251 32.4053 30.6251 32.0833V21H31.7918C32.7584 21 33.5418 20.2166 33.5418 19.25C33.5418 18.2834 32.7583 17.5 31.7918 17.5ZM7.29181 2.91669C7.29181 1.95009 8.0752 1.16669 9.04181 1.16669H23.0418C24.0084 1.16669 24.7918 1.95009 24.7918 2.91669C24.7918 3.88329 24.0084 4.66669 23.0418 4.66669C22.7198 4.66669 22.4585 4.92803 22.4585 5.25V12.8333H9.62512V5.25C9.62512 4.92803 9.36378 4.66669 9.04181 4.66669C8.0752 4.66669 7.29181 3.88322 7.29181 2.91669ZM5.54181 33.25C5.54181 33.572 5.28047 33.8333 4.9585 33.8333C4.63652 33.8333 4.37519 33.572 4.37519 33.25V32.6667H5.54187V33.25H5.54181ZM27.7084 33.25C27.7084 33.572 27.4471 33.8333 27.1251 33.8333C26.8031 33.8333 26.5418 33.572 26.5418 33.25V32.6667H27.7085V33.25H27.7084ZM29.4584 31.5H2.62512V29.1667H29.4584V31.5ZM29.4584 18.0833V28H2.62512V16.9167C2.62512 15.3061 3.93119 14 5.54181 14H26.5418C28.1524 14 29.4585 15.3061 29.4585 16.9167V18.0833H29.4584ZM31.7918 19.8333H30.6251V18.6666H31.7918C32.1138 18.6666 32.3751 18.928 32.3751 19.2499C32.3751 19.5719 32.1138 19.8333 31.7918 19.8333Z" fill="black"/>
<path d="M11.785 5.66568L14.7012 2.74951L13.8762 1.92454L10.96 4.84071L11.785 5.66568Z" fill="black"/>
<path d="M11.7831 10.3282L18.7827 3.32861L17.9577 2.50365L10.9581 9.50327L11.7831 10.3282Z" fill="black"/>
<path d="M14.7045 12.0814L21.1226 5.66333L20.2976 4.83836L13.8796 11.2564L14.7045 12.0814Z" fill="black"/>
<path d="M19.3671 12.0809L21.7017 9.74634L20.8767 8.92137L18.5421 11.256L19.3671 12.0809Z" fill="black"/>
<path d="M3.79199 16.9165V18.0832H4.95868V16.9165C4.95868 16.5945 5.22002 16.3332 5.54199 16.3332V15.1665C4.57539 15.1665 3.79199 15.9499 3.79199 16.9165Z" fill="black"/>
<path d="M4.95868 19.2505H3.79199V25.6672H4.95868V19.2505Z" fill="black"/>
</g>
<defs>
<clipPath id="clip0">
<rect width="35" height="35" fill="white"/>
</clipPath>
</defs>
</svg>
