<svg width="30" height="30" viewBox="0 0 30 30" fill="none" xmlns="http://www.w3.org/2000/svg">
<g clip-path="url(#clip0)">
<path d="M28.7501 10.05H1.24992C0.560074 10.05 0 10.6101 0 11.3V26.2501C0 28.3176 1.68251 30.0001 3.75 30.0001H26.25C28.3175 30.0001 30 28.3176 30 26.2501V11.3C30 10.6101 29.4399 10.05 28.7501 10.05Z" fill="#D1E2EE"/>
<path d="M26.25 3.75H3.75C1.67885 3.75 0 5.42885 0 7.5V11.2999H30V7.5C30 5.42885 28.3212 3.75 26.25 3.75Z" fill="#2196F3"/>
<path d="M7.18762 7.5C6.67012 7.5 6.25012 7.08 6.25012 6.5625V0.9375C6.25012 0.419998 6.67012 0 7.18762 0C7.70512 0 8.12512 0.419998 8.12512 0.9375V6.5625C8.12512 7.08 7.70512 7.5 7.18762 7.5Z" fill="black"/>
<path d="M22.8124 7.5C22.2949 7.5 21.8749 7.08 21.8749 6.5625V0.9375C21.8749 0.419998 22.2949 0 22.8124 0C23.3299 0 23.7499 0.419998 23.7499 0.9375V6.5625C23.7499 7.08 23.3299 7.5 22.8124 7.5Z" fill="black"/>
</g>
<defs>
<clipPath id="clip0">
<rect width="30" height="30" fill="white"/>
</clipPath>
</defs>
</svg>
