<svg width="35" height="35" viewBox="0 0 35 35" fill="none" xmlns="http://www.w3.org/2000/svg">
<g clip-path="url(#clip0)">
<path d="M34.4166 12.25V33.2499C34.4147 33.8935 33.8935 34.4147 33.2499 34.4168H1.75014C1.10661 34.4147 0.585365 33.8935 0.583496 33.2499V12.25L4.9585 1.31836C5.13393 0.875893 5.56145 0.584831 6.03756 0.583496H29.1668L34.4166 12.25Z" fill="#FEC108"/>
<path d="M34.4166 12.25V33.2499C34.4148 33.8935 33.8935 34.4147 33.25 34.4169H24.5V12.25H34.4166Z" fill="#D84315"/>
<path d="M32.6668 12.25V33.2499C32.6649 33.8935 32.1437 34.4147 31.5002 34.4169H24.5V12.25H32.6668Z" fill="#FF5722"/>
<path d="M34.4166 12.25H24.5L28.3441 2.64256L29.1669 0.583496L34.4166 12.25Z" fill="#F57C00"/>
<path d="M32.6668 12.25H24.5L28.3441 2.64258L32.6668 12.25Z" fill="#FF9801"/>
<path d="M29.1668 0.583496L24.4999 12.25H0.583496L4.9585 1.31836C5.13393 0.875893 5.56145 0.584831 6.03756 0.583496H29.1668Z" fill="#FEC108"/>
<path d="M27.4167 0.583496L22.7501 12.25H0.583496L4.9585 1.31836C5.13393 0.875893 5.56145 0.584831 6.03756 0.583496H27.4167Z" fill="#FFDC00"/>
<path d="M18.6283 8.1669H9.65427C9.066 8.1669 8.51726 7.8713 8.19335 7.38023C7.86944 6.8889 7.81417 6.26806 8.04568 5.72733C8.4732 4.73024 9.45373 4.0835 10.5387 4.0835H19.5127C20.101 4.0835 20.6497 4.3791 20.9736 4.87016C21.2975 5.36123 21.3528 5.98207 21.121 6.5228C20.6938 7.52016 19.7132 8.16663 18.6283 8.1669Z" fill="#783E22"/>
<path d="M2.91695 29.1667C2.59465 29.1667 2.3335 28.9055 2.3335 28.5832V14.5832C2.3335 14.2612 2.59465 14 2.91695 14C3.23899 14 3.50014 14.2612 3.50014 14.5832V28.5832C3.50014 28.9055 3.23899 29.1667 2.91695 29.1667Z" fill="black"/>
<path d="M2.91695 32.6668C2.59465 32.6668 2.3335 32.4056 2.3335 32.0833V30.9167C2.3335 30.5947 2.59465 30.3335 2.91695 30.3335C3.23899 30.3335 3.50014 30.5947 3.50014 30.9167V32.0833C3.50014 32.4056 3.23899 32.6668 2.91695 32.6668Z" fill="black"/>
<path d="M24.4999 35H1.75011C0.783997 34.9989 0.00106812 34.216 0 33.2499V12.2499C0 11.9279 0.261154 11.6667 0.583458 11.6667H24.4999C24.8222 11.6667 25.0834 11.9279 25.0834 12.2499V34.4168C25.0834 34.7388 24.8222 35 24.4999 35ZM1.16665 12.8334V33.2499C1.16692 33.5719 1.42807 33.8331 1.75011 33.8333H23.9167V12.8334H1.16665Z" fill="black"/>
<path d="M33.2497 35H24.4997C24.1777 35 23.9165 34.7388 23.9165 34.4168V12.2499C23.9165 11.9279 24.1777 11.6667 24.4997 11.6667H34.4163C34.7386 11.6667 34.9998 11.9279 34.9998 12.2499V33.2499C34.9987 34.216 34.2158 34.9989 33.2497 35ZM25.0832 33.8333H33.2497C33.5717 33.8331 33.8329 33.5719 33.8332 33.2499V12.8334H25.0832V33.8333Z" fill="black"/>
<path d="M24.5006 12.8337C24.3073 12.8334 24.1263 12.7373 24.0178 12.5771C23.9094 12.4166 23.8873 12.2131 23.9591 12.0331L28.6257 0.366631C28.7127 0.149536 28.921 0.00534058 29.1549 0H29.1675C29.3969 0.000267029 29.6051 0.13485 29.6994 0.3442L34.9495 12.011C35.0349 12.2008 35.0125 12.4222 34.8905 12.5912C34.7687 12.7602 34.5657 12.8513 34.3585 12.8305C34.151 12.8094 33.9708 12.6793 33.8854 12.4892L29.1987 2.07508L25.0424 12.4668C24.9538 12.6881 24.7394 12.8334 24.5006 12.8337Z" fill="black"/>
<path d="M0.583902 12.8334C0.390306 12.8332 0.209261 12.737 0.100847 12.5768C-0.00756652 12.4163 -0.0297299 12.2129 0.0421009 12.0329L4.41523 1.09966C4.67932 0.433955 5.3242 -0.00263752 6.04064 -0.000234269H29.1672C29.4892 -0.000234269 29.7504 0.26092 29.7504 0.583224C29.7504 0.90526 29.4892 1.16641 29.1672 1.16641H6.04064C5.80165 1.16561 5.58669 1.31114 5.49883 1.53331L1.12544 12.4665C1.03678 12.6879 0.822359 12.8332 0.583902 12.8334Z" fill="black"/>
<path d="M18.6282 8.75005H9.65448C8.87021 8.75005 8.13829 8.35619 7.70624 7.70143C7.27445 7.04641 7.20049 6.21862 7.50944 5.49764C8.02827 4.28507 9.22029 3.4992 10.5391 3.5H19.5129C20.2972 3.5 21.0291 3.89414 21.4609 4.54889C21.8927 5.20364 21.9666 6.0317 21.6577 6.75268C21.1388 7.96499 19.9468 8.75085 18.6282 8.75005ZM10.5391 4.66665C9.68705 4.66612 8.91694 5.174 8.58156 5.9572C8.42748 6.31796 8.4646 6.73185 8.68036 7.05896C8.89638 7.38634 9.26221 7.58341 9.65448 7.58341H18.6282C19.4803 7.58394 20.2504 7.07605 20.5856 6.29285C20.7399 5.93237 20.7028 5.51847 20.4868 5.19109C20.2707 4.86372 19.9049 4.66665 19.5129 4.66665H10.5391Z" fill="black"/>
</g>
<defs>
<clipPath id="clip0">
<rect width="35" height="35" fill="white"/>
</clipPath>
</defs>
</svg>
