<svg width="24" height="24" viewBox="0 0 24 24" fill="none" xmlns="http://www.w3.org/2000/svg">
<path d="M17.5275 13.8038C17.2873 13.5855 16.9717 13.4691 16.6472 13.4791C16.3228 13.4891 16.015 13.6248 15.7887 13.8576L12.7975 16.9338C12.0775 16.7963 10.63 16.3451 9.13999 14.8588C7.64999 13.3676 7.19874 11.9163 7.06499 11.2013L10.1387 8.20881C10.3717 7.98272 10.5077 7.67483 10.5177 7.35031C10.5277 7.02579 10.4111 6.71011 10.1925 6.47006L5.57374 1.3913C5.35504 1.1505 5.05108 1.00443 4.72643 0.984129C4.40177 0.963823 4.08198 1.07088 3.83499 1.28255L1.12249 3.6088C0.906375 3.8257 0.777386 4.11437 0.759986 4.42005C0.741236 4.73255 0.383736 12.1351 6.12374 17.8776C11.1312 22.8838 17.4037 23.2501 19.1312 23.2501C19.3837 23.2501 19.5387 23.2426 19.58 23.2401C19.8856 23.2229 20.1741 23.0934 20.39 22.8763L22.715 20.1626C22.9268 19.9157 23.0341 19.596 23.014 19.2714C22.9939 18.9467 22.8481 18.6427 22.6075 18.4238L17.5275 13.8038Z" fill="#4871D4"/>
</svg>
