<svg width="265" height="265" viewBox="0 0 265 265" fill="none" xmlns="http://www.w3.org/2000/svg">
<mask id="mask0" mask-type="alpha" maskUnits="userSpaceOnUse" x="70" y="66" width="125" height="125">
<circle cx="132.5" cy="128.5" r="62.5" fill="#C4C4C4"/>
</mask>
<g mask="url(#mask0)">
<g filter="url(#filter0_d)">
<circle cx="132.5" cy="128.5" r="62.5" fill="#D29B6E"/>
</g>
<path d="M172.54 190.653C172.14 181.043 171.25 168.713 169.32 165.053C166.02 158.793 146.98 158.193 143.93 153.123C140.88 148.053 141.39 138.813 141.39 138.813L132.76 139.113L124.13 138.813C124.13 138.813 124.64 148.053 121.59 153.123C118.54 158.193 99.5 158.793 96.2 165.053C94.27 168.713 93.38 181.043 92.98 190.653H172.54Z" fill="#E6AF97"/>
<path d="M132.75 139.103L124.12 138.803C124.12 138.803 124.46 145.163 122.84 150.233C127.2 153.583 134.95 157.243 145.39 154.583C144.75 154.133 144.24 153.653 143.92 153.123C140.87 148.053 141.38 138.813 141.38 138.813L132.75 139.103Z" fill="#D99885"/>
<path d="M110.74 116.434C110.74 116.434 106.91 113.204 103.88 116.884C101.35 119.954 104.79 126.184 108.22 128.164C111.65 130.154 112.91 127.984 112.91 127.984L110.74 116.434Z" fill="#E6AF97"/>
<path d="M110.92 121.974C110.92 121.974 108.68 117.714 105.88 117.604C103.08 117.494 108.23 118.504 108.01 120.404C107.79 122.314 105.54 123.994 106.78 123.884C108.01 123.774 109.13 121.414 109.69 122.654C110.25 123.884 111.04 124.784 111.04 124.114C111.04 123.424 110.92 121.974 110.92 121.974Z" fill="#D99885"/>
<path d="M154.76 116.434C154.76 116.434 158.59 113.204 161.62 116.884C164.15 119.954 160.71 126.184 157.28 128.164C153.85 130.154 152.59 127.984 152.59 127.984L154.76 116.434Z" fill="#E6AF97"/>
<path d="M154.58 121.974C154.58 121.974 156.82 117.714 159.62 117.604C162.42 117.494 157.27 118.504 157.49 120.404C157.71 122.314 159.96 123.994 158.72 123.884C157.49 123.774 156.37 121.414 155.81 122.654C155.25 123.884 154.46 124.784 154.46 124.114C154.47 123.424 154.58 121.974 154.58 121.974Z" fill="#D99885"/>
<path d="M132.75 87.7834C118.15 88.3234 108.78 97.6934 108.96 105.083C109.15 112.833 110.04 134.273 117.25 142.023C119.26 144.183 121.35 145.833 123.32 147.103C129.07 150.783 136.42 150.783 142.17 147.103C144.14 145.843 146.24 144.183 148.24 142.023C155.45 134.273 156.34 112.833 156.53 105.083C156.72 97.6934 147.35 88.3234 132.75 87.7834Z" fill="#E6AF97"/>
<path d="M132.75 87.7834C124.91 88.0734 118.59 90.9234 114.44 94.6334C114.68 96.5134 115.32 98.6334 116.47 101.043C116.47 101.043 121.38 109.043 132.65 109.043C143.92 109.043 147.92 113.773 147.92 121.943C147.92 130.113 146.83 143.803 134.84 147.023C127.34 149.033 121.54 145.753 118.25 143.023C119.95 144.693 121.68 146.043 123.33 147.103C129.08 150.783 136.43 150.783 142.18 147.103C144.15 145.843 146.25 144.183 148.25 142.023C155.46 134.273 156.35 112.833 156.54 105.083C156.72 97.6934 147.35 88.3234 132.75 87.7834Z" fill="#E2A58E"/>
<path d="M110.15 121.933C110.15 121.933 106.33 110.633 107.19 102.813C108.06 94.9934 113.1 92.9034 113.1 92.9034C113.1 92.9034 109.8 86.1234 124.23 82.9934C138.66 79.8634 146.31 85.0834 149.79 85.6034C153.27 86.1234 157.84 83.0634 158.31 84.3834C159.35 87.3434 156.57 91.3334 156.57 91.3334C156.57 91.3334 158.13 90.2934 159.35 90.9834C160.56 91.6734 156.92 97.5934 156.92 97.5934C156.92 97.5934 157.44 98.6334 157.96 103.333C158.48 108.033 155.35 121.933 155.35 121.933C155.35 121.933 152.05 112.023 151.53 108.203C151.01 104.383 148.92 99.8634 148.92 99.8634C148.92 99.8634 140.05 106.813 130.84 106.643C121.63 106.473 116.59 101.603 116.59 101.603C116.59 101.603 118.5 106.293 115.2 108.903C111.9 111.513 111.9 113.943 111.9 115.163C111.9 116.383 110.15 121.933 110.15 121.933Z" fill="black"/>
<path d="M183.73 190.653C182.59 181.083 180.01 168.823 174.21 164.123C166.27 157.683 152.05 154.303 146.39 153.153C145.53 159.583 139.81 164.563 132.86 164.563C125.91 164.563 120.19 159.593 119.33 153.153C113.67 154.303 99.45 157.693 91.51 164.123C85.71 168.823 83.14 181.083 82 190.653H183.73Z" fill="#5D7FCE"/>
<path d="M103.67 190.653C101.9 183.183 100.71 171.413 98.75 176.633C97.47 180.043 96.03 185.913 95.6 190.653H103.67Z" fill="#5072C1"/>
<path d="M183.73 190.653C182.59 181.083 180.01 168.823 174.22 164.123C166.28 157.683 152.06 154.303 146.4 153.153C146.26 154.233 145.96 155.273 145.56 156.253C150.49 156.313 158.23 157.903 160.38 166.973C162.64 176.543 161.09 184.513 155.25 190.653H183.73Z" fill="#5072C1"/>
<path d="M116.27 153.823C116.74 161.633 123.98 167.843 132.87 167.843C141.76 167.843 149 161.633 149.47 153.823C148.3 153.553 145.65 153.323 144.81 153.153C143.95 159.583 139.82 162.963 132.88 162.963C125.93 162.963 121.81 159.583 120.95 153.153C120.09 153.323 117.45 153.553 116.27 153.823Z" fill="#4062B5"/>
<path d="M124.71 122.773C124.71 123.963 123.93 124.933 122.96 124.933C121.99 124.933 121.21 123.963 121.21 122.773C121.21 121.583 121.99 120.613 122.96 120.613C123.93 120.613 124.71 121.573 124.71 122.773Z" fill="black"/>
<path d="M144.39 122.773C144.39 123.963 143.61 124.933 142.64 124.933C141.67 124.933 140.89 123.963 140.89 122.773C140.89 121.583 141.67 120.613 142.64 120.613C143.6 120.613 144.39 121.573 144.39 122.773Z" fill="black"/>
<path d="M133.92 121.903C133.92 121.903 132.89 123.323 134.44 126.303C135.99 129.283 137.42 131.223 136.51 132.253C135.6 133.283 133.15 134.193 133.28 133.803C133.41 133.413 135.41 132.273 134.37 129.563C133.33 126.843 131.59 124.483 133.92 121.903Z" fill="#D99885"/>
<path d="M116.85 117.993C116.85 117.993 119.48 113.183 123.48 114.783C124.9 115.353 124.75 116.983 121.62 116.453C119.67 116.113 116.85 117.993 116.85 117.993Z" fill="black"/>
<path d="M147.96 118.123C147.96 118.123 145.37 113.293 141.36 114.853C139.94 115.403 140.07 117.043 143.21 116.533C145.16 116.223 147.96 118.123 147.96 118.123Z" fill="black"/>
<path d="M128.32 138.603C128.1 138.223 128.26 137.734 128.68 137.594C131.02 136.774 138.66 134.724 138.96 135.564C139.31 136.554 138.31 140.864 133.52 141.154C130.25 141.344 128.86 139.533 128.32 138.603Z" fill="#BA3C54"/>
<path d="M133.52 141.154C135.67 141.024 137.05 140.084 137.9 139.004C133.96 137.134 131.44 139.374 130.44 140.594C131.2 140.974 132.2 141.224 133.52 141.154Z" fill="#DA677D"/>
<path d="M138.05 135.904C138.13 135.694 138.18 135.524 138.22 135.374C136.27 135.394 131.02 136.814 128.91 137.524C129.06 137.794 129.51 138.034 131.01 137.934C133.52 137.744 137.69 136.784 138.05 135.904Z" fill="white"/>
<path opacity="0.35" d="M129.31 123.843C129.31 128.483 125.55 132.243 120.91 132.243C116.27 132.243 112.51 128.483 112.51 123.843C112.51 119.203 116.27 117.563 120.91 117.563C125.55 117.573 129.31 119.203 129.31 123.843Z" fill="white"/>
<path opacity="0.35" d="M152.14 123.843C152.14 128.483 148.38 132.243 143.74 132.243C139.1 132.243 135.34 128.483 135.34 123.843C135.34 119.203 139.1 117.563 143.74 117.563C148.38 117.573 152.14 119.203 152.14 123.843Z" fill="white"/>
<path d="M143.74 117.043C138.33 117.043 135.24 119.203 134.88 123.093H129.77C129.41 119.193 126.32 117.043 120.91 117.043C115.15 117.043 111.98 119.463 111.98 123.843C111.98 128.763 115.99 132.773 120.91 132.773C125.58 132.773 129.42 129.163 129.8 124.593H134.84C135.22 129.163 139.06 132.773 143.73 132.773C148.65 132.773 152.66 128.763 152.66 123.843C152.67 119.463 149.5 117.043 143.74 117.043ZM120.91 131.723C116.57 131.723 113.03 128.193 113.03 123.843C113.03 119.093 117.31 118.093 120.91 118.093C124.5 118.093 128.79 119.093 128.79 123.843C128.78 128.193 125.25 131.723 120.91 131.723ZM143.74 131.723C139.4 131.723 135.86 128.193 135.86 123.843C135.86 119.093 140.14 118.093 143.74 118.093C147.33 118.093 151.62 119.093 151.62 123.843C151.61 128.193 148.08 131.723 143.74 131.723Z" fill="#221613"/>
</g>
<defs>
<filter id="filter0_d" x="0" y="0" width="265" height="265" filterUnits="userSpaceOnUse" color-interpolation-filters="sRGB">
<feFlood flood-opacity="0" result="BackgroundImageFix"/>
<feColorMatrix in="SourceAlpha" type="matrix" values="0 0 0 0 0 0 0 0 0 0 0 0 0 0 0 0 0 0 127 0"/>
<feOffset dy="4"/>
<feGaussianBlur stdDeviation="35"/>
<feColorMatrix type="matrix" values="0 0 0 0 0 0 0 0 0 0 0 0 0 0 0 0 0 0 0.07 0"/>
<feBlend mode="normal" in2="BackgroundImageFix" result="effect1_dropShadow"/>
<feBlend mode="normal" in="SourceGraphic" in2="effect1_dropShadow" result="shape"/>
</filter>
</defs>
</svg>
