<svg width="35" height="35" viewBox="0 0 35 35" fill="none" xmlns="http://www.w3.org/2000/svg">
<g clip-path="url(#clip0)">
<path d="M32.8521 35.0001H2.14793C1.29228 35.0001 0.598633 34.3064 0.598633 33.4508V12.594H34.4015V33.4508C34.4014 34.3064 33.7077 35.0001 32.8521 35.0001Z" fill="#D8ECFE"/>
<path d="M14.8454 19.3103H12.1693C11.8581 19.3103 11.606 19.0581 11.606 18.747V16.0709C11.606 15.7597 11.8582 15.5076 12.1693 15.5076H14.8454C15.1565 15.5076 15.4087 15.7598 15.4087 16.0709V18.747C15.4088 19.0581 15.1565 19.3103 14.8454 19.3103Z" fill="#7A8C98"/>
<path d="M22.8305 19.3103H20.1544C19.8432 19.3103 19.5911 19.0581 19.5911 18.747V16.0709C19.5911 15.7597 19.8433 15.5076 20.1544 15.5076H22.8305C23.1416 15.5076 23.3938 15.7598 23.3938 16.0709V18.747C23.3939 19.0581 23.1416 19.3103 22.8305 19.3103Z" fill="#7A8C98"/>
<path d="M30.8153 19.3103H28.1393C27.8281 19.3103 27.5759 19.0581 27.5759 18.747V16.0709C27.5759 15.7597 27.8282 15.5076 28.1393 15.5076H30.8153C31.1265 15.5076 31.3787 15.7598 31.3787 16.0709V18.747C31.3788 19.0581 31.1265 19.3103 30.8153 19.3103Z" fill="#7A8C98"/>
<path d="M14.8454 25.6985H12.1693C11.8581 25.6985 11.606 25.4463 11.606 25.1352V22.4591C11.606 22.1479 11.8582 21.8958 12.1693 21.8958H14.8454C15.1565 21.8958 15.4087 22.148 15.4087 22.4591V25.1352C15.4088 25.4463 15.1565 25.6985 14.8454 25.6985Z" fill="#7A8C98"/>
<path d="M22.8305 25.6985H20.1544C19.8432 25.6985 19.5911 25.4463 19.5911 25.1352V22.4591C19.5911 22.1479 19.8433 21.8958 20.1544 21.8958H22.8305C23.1416 21.8958 23.3938 22.148 23.3938 22.4591V25.1352C23.3939 25.4463 23.1416 25.6985 22.8305 25.6985Z" fill="#7A8C98"/>
<path d="M30.8153 25.6985H28.1393C27.8281 25.6985 27.5759 25.4463 27.5759 25.1352V22.4591C27.5759 22.1479 27.8282 21.8958 28.1393 21.8958H30.8153C31.1265 21.8958 31.3787 22.148 31.3787 22.4591V25.1352C31.3788 25.4463 31.1265 25.6985 30.8153 25.6985Z" fill="#7A8C98"/>
<path d="M6.86075 25.6985H4.18469C3.87352 25.6985 3.62134 25.4463 3.62134 25.1352V22.4591C3.62134 22.1479 3.87358 21.8958 4.18469 21.8958H6.86075C7.17192 21.8958 7.4241 22.148 7.4241 22.4591V25.1352C7.4241 25.4463 7.17186 25.6985 6.86075 25.6985Z" fill="#7A8C98"/>
<path d="M14.8454 32.0862H12.1693C11.8581 32.0862 11.606 31.834 11.606 31.5229V28.8468C11.606 28.5356 11.8582 28.2834 12.1693 28.2834H14.8454C15.1565 28.2834 15.4087 28.5357 15.4087 28.8468V31.5229C15.4088 31.834 15.1565 32.0862 14.8454 32.0862Z" fill="#7A8C98"/>
<path d="M22.8305 32.0862H20.1544C19.8432 32.0862 19.5911 31.834 19.5911 31.5229V28.8468C19.5911 28.5356 19.8433 28.2834 20.1544 28.2834H22.8305C23.1416 28.2834 23.3938 28.5357 23.3938 28.8468V31.5229C23.3939 31.834 23.1416 32.0862 22.8305 32.0862Z" fill="#7A8C98"/>
<path d="M6.86075 32.0862H4.18469C3.87352 32.0862 3.62134 31.834 3.62134 31.5229V28.8468C3.62134 28.5356 3.87358 28.2834 4.18469 28.2834H6.86075C7.17192 28.2834 7.4241 28.5357 7.4241 28.8468V31.5229C7.4241 31.834 7.17186 32.0862 6.86075 32.0862Z" fill="#7A8C98"/>
<path d="M31.3789 12.594V33.4508C31.3789 34.3064 30.6852 35.0001 29.8296 35.0001H32.8522C33.7079 35.0001 34.4015 34.3064 34.4015 33.4508V12.594H31.3789Z" fill="#C4E2FF"/>
<path d="M34.4014 12.5937H0.598633V5.61888C0.598633 4.76322 1.29228 4.06958 2.14793 4.06958H32.8522C33.7078 4.06958 34.4015 4.76322 34.4015 5.61888V12.5937H34.4014Z" fill="#FE646F"/>
<path d="M32.8522 4.06958H29.8296C30.6852 4.06958 31.3789 4.76322 31.3789 5.61888V12.5937H34.4015V5.61888C34.4015 4.76322 33.7079 4.06958 32.8522 4.06958Z" fill="#FD4755"/>
<path d="M13.5779 8.13955C12.6788 8.13955 11.95 7.4107 11.95 6.51164V1.62791C11.95 0.728848 12.6787 0 13.5778 0C14.4769 0 15.2057 0.728848 15.2057 1.62791V6.51164C15.2057 7.4107 14.4769 8.13955 13.5779 8.13955Z" fill="#F9B1B1"/>
<path d="M5.73314 8.13955C4.83407 8.13955 4.10522 7.4107 4.10522 6.51164V1.62791C4.10522 0.728848 4.834 0 5.73307 0C6.63213 0 7.36098 0.728848 7.36098 1.62791V6.51164C7.36098 7.4107 6.6322 8.13955 5.73314 8.13955Z" fill="#F9B1B1"/>
<path d="M21.4226 8.13955C20.5235 8.13955 19.7947 7.4107 19.7947 6.51164V1.62791C19.7947 0.728848 20.5235 0 21.4225 0C22.3216 0 23.0504 0.728848 23.0504 1.62791V6.51164C23.0504 7.4107 22.3216 8.13955 21.4226 8.13955Z" fill="#F9B1B1"/>
<path d="M29.2673 8.13955C28.3683 8.13955 27.6394 7.4107 27.6394 6.51164V1.62791C27.6394 0.728848 28.3682 0 29.2672 0C30.1663 0 30.8952 0.728848 30.8952 1.62791V6.51164C30.8952 7.4107 30.1664 8.13955 29.2673 8.13955Z" fill="#F9B1B1"/>
</g>
<defs>
<clipPath id="clip0">
<rect width="35" height="35" fill="white"/>
</clipPath>
</defs>
</svg>
