<svg width="35" height="35" viewBox="0 0 35 35" fill="none" xmlns="http://www.w3.org/2000/svg">
<g clip-path="url(#clip0)">
<path d="M17.4999 28.9657C23.8322 28.9657 28.9654 23.8324 28.9654 17.5002C28.9654 11.168 23.8322 6.03467 17.4999 6.03467C11.1677 6.03467 6.03442 11.168 6.03442 17.5002C6.03442 23.8324 11.1677 28.9657 17.4999 28.9657Z" fill="#FFC850"/>
<path d="M17.5001 27.1553C22.8325 27.1553 27.1553 22.8325 27.1553 17.5001C27.1553 12.1677 22.8325 7.84497 17.5001 7.84497C12.1677 7.84497 7.84497 12.1677 7.84497 17.5001C7.84497 22.8325 12.1677 27.1553 17.5001 27.1553Z" fill="#FFDC64"/>
<path d="M22.3277 15.0861C23.3275 15.0861 24.1381 14.2755 24.1381 13.2757C24.1381 12.2759 23.3275 11.4653 22.3277 11.4653C21.3279 11.4653 20.5173 12.2759 20.5173 13.2757C20.5173 14.2755 21.3279 15.0861 22.3277 15.0861Z" fill="#FFF082"/>
<path d="M20.3228 22.2101C16.6828 21.5999 13.8005 18.6115 13.3429 14.9491C13.1789 13.6366 13.3223 12.3785 13.7054 11.2294C13.8944 10.6624 13.244 10.1851 12.75 10.5214C10.2177 12.2452 8.67008 15.3051 9.13349 18.6917C9.64666 22.4419 12.7135 25.443 16.4724 25.8874C19.3125 26.2231 21.9084 25.1456 23.6621 23.2689C24.0721 22.8301 23.71 22.1094 23.1178 22.21C22.2275 22.3612 21.2896 22.3721 20.3228 22.2101Z" fill="#FFC850"/>
<path d="M18.2542 16.9261V12.8665C19.8497 13.0478 20.9697 13.7803 20.9697 14.4452C20.9697 14.8618 21.3074 15.1995 21.724 15.1995C22.1406 15.1995 22.4783 14.8618 22.4783 14.4452C22.4783 12.8517 20.6744 11.5757 18.2542 11.3529V10.8622C18.2542 10.4456 17.9165 10.1079 17.4999 10.1079C17.0833 10.1079 16.7456 10.4456 16.7456 10.8622V11.3529C14.3254 11.5756 12.5215 12.8517 12.5215 14.4452C12.5215 16.5837 14.4591 17.4257 16.7456 18.0742V22.1338C15.1502 21.9525 14.0301 21.22 14.0301 20.5551C14.0301 20.1386 13.6924 19.8009 13.2758 19.8009C12.8592 19.8009 12.5216 20.1386 12.5216 20.5551C12.5216 22.1486 14.3255 23.4247 16.7457 23.6474V24.1381C16.7457 24.5547 17.0834 24.8924 17.5 24.8924C17.9165 24.8924 18.2542 24.5547 18.2542 24.1381V23.6474C20.6744 23.4247 22.4784 22.1486 22.4784 20.5551C22.4784 18.4165 20.5408 17.5745 18.2542 16.9261ZM14.0301 14.4451C14.0301 13.7802 15.1502 13.0478 16.7456 12.8664V16.5005C14.7371 15.8831 14.0301 15.3241 14.0301 14.4451ZM18.2542 22.1338V18.4996C20.2629 19.117 20.9697 19.6761 20.9697 20.5551C20.9698 21.2199 19.8497 21.9524 18.2542 22.1338Z" fill="#E1A546"/>
<path d="M17.5001 0C12.5078 0 7.84643 2.08633 4.52847 5.75839L4.82174 3.70604C4.8689 3.376 4.63963 3.07016 4.30966 3.02299C3.98023 2.97644 3.67378 3.20571 3.62661 3.53507L3.02313 7.7592C2.99367 7.9666 3.07324 8.17407 3.23409 8.30778C3.34428 8.39979 3.48155 8.44819 3.62066 8.44819C3.68492 8.44819 3.74911 8.43814 3.81159 8.41695L7.43231 7.21007C7.7482 7.10514 7.9191 6.76334 7.81362 6.4469C7.70869 6.13102 7.36874 5.95957 7.05046 6.0656L5.36841 6.62628C8.46105 3.17071 12.8253 1.20688 17.5001 1.20688C26.4841 1.20688 33.7932 8.51601 33.7932 17.5C33.7932 26.484 26.4841 33.7931 17.5001 33.7931C17.1666 33.7931 16.8966 34.063 16.8966 34.3966C16.8966 34.7301 17.1665 35.0001 17.5001 35.0001C27.1494 35.0001 35.0001 27.1493 35.0001 17.5001C35.0001 7.8508 27.1494 0 17.5001 0Z" fill="#C7CFE2"/>
<path d="M15.0868 34.8292C15.0585 34.8292 15.029 34.8275 15.0002 34.8227C14.7928 34.7932 14.587 34.7602 14.3825 34.7225C14.0543 34.663 13.8369 34.3489 13.8969 34.0212C13.9565 33.693 14.2711 33.4737 14.5982 33.5356C14.7885 33.5698 14.9801 33.6004 15.1722 33.6287C15.5022 33.6759 15.7308 33.9823 15.6831 34.3118C15.6402 34.6129 15.382 34.8292 15.0868 34.8292Z" fill="#E4EAF8"/>
<path d="M12.2251 34.1603C12.1626 34.1603 12.0996 34.1509 12.0371 34.1303C11.6523 34.0042 11.2699 33.8634 10.8998 33.7125C10.5909 33.5864 10.4431 33.2346 10.5692 32.9257C10.6953 32.6169 11.0471 32.4685 11.3559 32.5952C11.7001 32.7354 12.0554 32.8663 12.4132 32.9835C12.7302 33.0872 12.9023 33.4284 12.7986 33.7449C12.7149 33.9995 12.4791 34.1603 12.2251 34.1603ZM9.03055 32.7278C8.92801 32.7278 8.82369 32.7018 8.72881 32.6464C8.38291 32.4461 8.03817 32.2298 7.70342 32.0029C7.42704 31.8155 7.35513 31.4407 7.54195 31.1649C7.72933 30.8879 8.10476 30.8178 8.3799 31.0035C8.69169 31.2144 9.01223 31.416 9.33345 31.6022C9.6222 31.7696 9.72063 32.1384 9.55322 32.4267C9.44125 32.6199 9.23856 32.7278 9.03055 32.7278ZM6.20184 30.6681C6.05808 30.6681 5.9137 30.6168 5.79811 30.5131C5.49992 30.2443 5.207 29.962 4.92707 29.6733C4.69547 29.434 4.70135 29.0522 4.94122 28.8199C5.17925 28.5889 5.56233 28.5937 5.79455 28.8341C6.05561 29.104 6.32611 29.365 6.60543 29.6161C6.85289 29.8388 6.87299 30.2207 6.6502 30.4682C6.53126 30.601 6.36686 30.6681 6.20184 30.6681ZM3.85643 28.0722C3.67021 28.0722 3.48694 27.9868 3.36909 27.8253C3.13216 27.5018 2.90356 27.1653 2.68851 26.8252C2.51057 26.5436 2.59485 26.1705 2.87649 25.9925C3.15937 25.8151 3.53124 25.8994 3.70918 26.1805C3.90954 26.4982 4.12111 26.8093 4.34267 27.1123C4.53947 27.3815 4.48116 27.7587 4.21237 27.9556C4.1045 28.0345 3.98022 28.0722 3.85643 28.0722ZM2.09323 25.0497C1.86279 25.0497 1.64356 24.9177 1.5428 24.6949C1.37662 24.3278 1.2222 23.9512 1.0837 23.5752C0.967627 23.2629 1.12731 22.9158 1.44026 22.8003C1.75205 22.6824 2.10027 22.8445 2.21519 23.1568C2.34486 23.5063 2.48801 23.8563 2.64243 24.1975C2.7797 24.5016 2.64476 24.8588 2.34131 24.9961C2.26058 25.0326 2.17636 25.0497 2.09323 25.0497ZM0.992373 21.7278C0.714766 21.7278 0.46498 21.5351 0.403662 21.2528C0.317051 20.8574 0.243975 20.4566 0.186826 20.0624C0.138496 19.7324 0.367158 19.4259 0.696582 19.3783C1.02601 19.3241 1.33308 19.5586 1.38072 19.888C1.43438 20.2546 1.50206 20.6276 1.58225 20.9959C1.65354 21.3213 1.4473 21.643 1.12144 21.7137C1.07844 21.7236 1.03482 21.7278 0.992373 21.7278ZM0.604023 18.2509C0.273984 18.2509 0.0047168 17.9857 0.000546875 17.6545L0 17.5001C0 17.1448 0.0106641 16.7918 0.0318555 16.4418C0.0519531 16.1088 0.346582 15.8643 0.670674 15.876C1.00365 15.8961 1.25699 16.1825 1.23642 16.5148C1.21632 16.8413 1.20695 17.1695 1.20695 17.5001L1.20757 17.6403C1.21174 17.9733 0.944795 18.2467 0.611201 18.2508C0.60874 18.2509 0.606416 18.2509 0.604023 18.2509ZM0.934062 14.7657C0.894619 14.7657 0.854492 14.7622 0.814434 14.754C0.487949 14.6879 0.276377 14.3697 0.341797 14.0432C0.420137 13.6537 0.513857 13.2577 0.620498 12.867C0.708271 12.5447 1.04357 12.3543 1.36124 12.4433C1.68301 12.5311 1.87271 12.8629 1.78493 13.184C1.68649 13.5452 1.59927 13.9112 1.5251 14.2813C1.46733 14.5677 1.2157 14.7657 0.934062 14.7657Z" fill="#E4EAF8"/>
<path d="M1.98078 11.4113C1.90121 11.4113 1.81986 11.3954 1.74275 11.3624C1.4363 11.2304 1.29486 10.8756 1.42632 10.5698C1.50883 10.3777 1.59544 10.1874 1.68444 9.9994C1.8282 9.6989 2.18709 9.57154 2.48883 9.71359C2.78995 9.85674 2.91785 10.2169 2.77464 10.518C2.69151 10.6918 2.61201 10.868 2.53538 11.046C2.43694 11.2746 2.21416 11.4113 1.98078 11.4113Z" fill="#E4EAF8"/>
</g>
<defs>
<clipPath id="clip0">
<rect width="35" height="35" fill="white"/>
</clipPath>
</defs>
</svg>
