<svg width="812" height="425" viewBox="0 0 812 425" fill="none" xmlns="http://www.w3.org/2000/svg">
<path d="M424.948 257.111C418.904 244.386 409.29 234.019 396.104 226.012C382.918 218.004 365.525 214 343.925 214C333.707 214.068 323.536 215.512 313.645 218.299C304.267 220.685 295.318 224.744 287.165 230.31C279.903 235.464 276.278 241.467 276.289 248.319C276.309 256.123 278.143 263.795 281.621 270.626C285.176 277.702 290.247 281.24 296.834 281.24C300.403 281.313 303.888 280.065 306.715 277.702C310.487 274.749 314.613 272.369 318.977 270.626C324.239 268.267 332.277 267.123 343.094 267.194C350.703 267.194 356.633 268.833 360.883 272.112C364.916 275.172 368.066 279.41 369.965 284.336C371.761 288.951 372.703 293.903 372.737 298.912V303.211H358.503C342.347 302.968 326.224 304.839 310.482 308.783C296.655 312.498 285.784 319.073 277.871 328.508C269.957 337.943 266 351.092 266 367.957C266 387.404 271.011 401.768 281.034 411.05C290.904 420.295 303.575 425.26 316.613 424.99C330.571 424.99 342.295 421.487 351.785 414.482C360.998 407.753 369.368 399.755 376.683 390.688V400.117C376.683 405.849 379.32 410.714 384.592 414.712C390.314 418.855 397.087 420.952 403.963 420.709C412.659 420.709 419.839 418.71 425.503 414.712C431.166 410.714 433.998 405.849 433.998 400.117V298.063C434.087 283.818 430.981 269.764 424.948 257.111ZM372.77 337.088C372.829 344.024 371.138 350.845 367.878 356.812C364.921 362.406 360.949 367.292 356.203 371.176C352.496 374.424 347.921 376.286 343.159 376.483C339.098 376.658 335.131 375.124 332.087 372.202C329.185 369.354 327.75 364.773 327.75 358.475C327.75 351.611 329.788 346.534 333.865 343.244C338.684 339.66 344.258 337.452 350.072 336.822C357.099 335.802 364.181 335.3 371.27 335.319H372.901L372.77 337.088Z" fill="#111111"/>
<path d="M615.117 373.358C613.181 368.396 610.141 364.043 606.273 360.695C602.25 357.235 597.249 355.419 592.133 355.559C588.763 355.548 585.45 356.507 582.527 358.339C579.482 360.199 575.903 362.13 571.724 364.113C566.336 366.354 560.589 367.378 554.829 367.124C542.8 367.124 534.296 364.267 529.318 358.552C524.329 352.814 521.867 344.667 521.867 334.094V304.871C521.867 294.245 524.329 286.151 529.318 280.413C534.307 274.674 542.649 271.823 554.457 271.823C560.302 271.641 566.135 272.508 571.724 274.391C575.553 275.842 579.291 277.563 582.916 279.545C585.748 281.222 588.912 282.116 592.133 282.148C594.434 282.164 596.714 281.676 598.84 280.711C600.965 279.747 602.892 278.327 604.507 276.534C608.077 272.788 610.886 268.262 612.752 263.251C614.549 258.926 615.551 254.256 615.7 249.508C615.7 243.185 612.801 237.323 607.05 231.797C606.759 231.531 606.5 231.266 606.176 231C607.099 236.154 608.217 241.626 609.577 247.825C607.777 243.913 604.729 240.858 601.009 239.235C595.242 236.738 588.634 237.464 582.787 239.785C576.939 242.105 571.578 245.576 566.054 248.64C538.537 263.823 506.869 267.391 477.097 258.664C478.474 253.067 479.64 247.418 480.547 241.715C476.399 246.717 472.925 252.341 470.23 258.416C463.923 272.879 460.769 288.744 461.013 304.765V333.987C460.77 350.014 463.925 365.884 470.23 380.354C476.546 394.282 486.705 405.687 499.272 412.959C512.489 420.976 529.442 424.985 550.132 424.985C561.831 425.187 573.488 423.395 584.682 419.671C594.875 416.129 602.974 411.406 608.978 405.503C614.982 399.599 617.989 393.519 618 387.261C617.905 382.462 616.924 377.733 615.117 373.358Z" fill="#111111"/>
<path d="M799.599 258.837C791.096 245.004 779.593 233.674 766.109 225.854C752.625 218.033 737.578 213.963 722.304 214.005C706.621 213.826 691.164 218.093 677.45 226.39C664.251 234.244 653.087 245.606 644.993 259.421C637.114 272.699 632.947 288.189 633.001 304.004V334.08C632.985 350.028 637.293 365.625 645.383 378.912C653.631 392.768 664.834 404.24 678.034 412.349C691.577 420.678 706.87 425.037 722.419 425C737.969 424.963 753.244 420.531 766.753 412.137C780.013 403.962 791.278 392.434 799.599 378.522C807.659 365.384 811.973 349.939 811.997 334.133V304.057C812.123 287.969 807.803 272.211 799.599 258.837ZM751.012 334.098C751.033 339.744 749.678 345.294 747.085 350.18C744.541 355.096 740.965 359.286 736.65 362.405C732.389 365.475 727.395 367.112 722.288 367.112C717.181 367.112 712.187 365.475 707.926 362.405C703.646 359.312 700.133 355.112 697.702 350.18C695.223 345.253 693.938 339.718 693.97 334.098V304.022C693.963 298.608 695.249 293.284 697.702 288.577C700.186 283.748 703.691 279.636 707.926 276.582C712.183 273.501 717.179 271.857 722.288 271.857C727.397 271.857 732.393 273.501 736.65 276.582C740.92 279.662 744.489 283.765 747.085 288.577C749.651 293.243 751.008 298.581 751.012 304.022V334.098Z" fill="#111111"/>
<path d="M615.827 251.047C615.448 249.366 615.069 247.685 614.707 245.986C614.56 245.305 614.259 244.676 613.834 244.159C613.475 243.572 612.995 243.09 612.434 242.752C611.888 242.355 611.257 242.128 610.605 242.094C609.949 241.938 609.267 241.976 608.628 242.204L607.459 242.752C606.727 243.235 606.115 243.913 605.68 244.725L605.185 246.023C604.938 246.978 604.938 247.991 605.185 248.946C605.531 250.627 605.91 252.326 606.289 254.007C606.436 254.692 606.743 255.322 607.179 255.834C607.522 256.428 607.999 256.913 608.562 257.241C609.114 257.638 609.751 257.865 610.407 257.899C611.057 258.06 611.733 258.028 612.368 257.807L613.554 257.241C614.288 256.77 614.901 256.096 615.333 255.286L615.827 253.971C616.058 253.013 616.058 252.005 615.827 251.047Z" fill="#111111"/>
<path d="M598.562 168.309C597.71 182.77 597.827 197.281 598.911 211.722C599.848 222.005 601.912 231.986 603.674 242.109C604.011 243.465 604.817 244.617 605.916 245.31C607.014 246.004 608.314 246.183 609.531 245.808C610.734 245.408 611.751 244.505 612.369 243.288C612.988 242.07 613.159 240.633 612.849 239.278C611.134 229.774 609.134 220.323 608.309 211.103C607.285 196.865 607.19 182.563 608.023 168.309C608.023 166.901 607.521 165.551 606.628 164.555C605.735 163.559 604.524 163 603.261 163C601.998 163 600.787 163.559 599.894 164.555C599 165.551 598.499 166.901 598.499 168.309H598.562Z" fill="#111111"/>
<path d="M512.095 132.067C506.72 144.79 497.444 155.022 485.897 160.964C480.487 163.657 474.587 164.942 468.653 164.718C465.772 164.688 462.91 164.209 460.152 163.295C458.658 162.85 457.185 162.321 455.74 161.711L454.657 161.231C455.417 161.586 454.528 161.231 454.431 161.106C453.558 160.643 452.685 160.181 451.845 159.683C450.487 158.864 449.162 157.992 447.885 157.031L446.932 156.302C446.835 156.213 446.059 155.59 446.738 156.159C446.043 155.572 445.38 154.949 444.734 154.38C443.594 153.265 442.514 152.076 441.501 150.821C440.984 150.198 440.483 149.54 439.998 148.882C439.514 148.223 440.435 149.558 439.869 148.704C439.594 148.277 439.304 147.832 439.045 147.405C438.128 145.897 437.286 144.334 436.524 142.725C436.346 142.334 436.168 141.96 436.007 141.568C435.845 141.177 435.441 140.216 435.716 140.892C435.99 141.568 435.506 140.323 435.457 140.18C435.295 139.682 435.118 139.184 434.956 138.668C434.453 137.048 434.037 135.396 433.712 133.721C433.55 132.867 433.421 132.031 433.275 131.177C433.065 129.86 433.275 130.75 433.275 131.035C433.275 130.394 433.146 129.753 433.098 129.113C433.009 127.394 433.009 125.671 433.098 123.953C433.098 123.098 433.097 122.173 433.227 121.372C433.227 120.945 433.227 120.518 433.356 120.091C433.259 121.07 433.356 120.091 433.356 119.629C433.854 116.127 434.733 112.703 435.974 109.433C435.603 110.394 436.411 108.49 436.572 108.116C436.928 107.351 437.299 106.604 437.687 105.856C438.075 105.109 438.479 104.397 438.916 103.685L439.562 102.618C439.562 102.618 440.726 100.981 440.015 101.924C440.992 100.605 442.039 99.3517 443.15 98.1694C443.699 97.5822 444.265 97.0128 444.847 96.4789L445.736 95.6782C445.073 96.2654 445.736 95.6783 446.108 95.4114C447.582 94.2542 449.132 93.2192 450.746 92.3152L451.764 91.7636C451.893 91.7636 453.251 91.0163 452.604 91.3188C451.958 91.6212 453.073 91.123 453.202 91.0697C453.736 90.8383 454.285 90.6248 454.819 90.4291C456.541 89.786 458.301 89.2748 460.087 88.8988L461.202 88.6675C462.35 88.4362 460.895 88.6675 461.59 88.6675C462.285 88.6675 463.287 88.4717 464.16 88.4184C465.963 88.3027 467.771 88.3027 469.574 88.4184L472.127 88.6497C473.323 88.7742 472.499 88.6497 472.241 88.6497L473.938 88.9878C477.477 89.7707 481.259 90.3935 484.491 91.1942C485.268 91.4056 486.086 91.334 486.823 90.9902C487.56 90.6463 488.176 90.0487 488.578 89.287C488.981 88.5252 489.148 87.6404 489.055 86.7652C488.962 85.89 488.614 85.0715 488.063 84.4326C485.442 80.9757 481.993 78.3986 478.107 76.9948C474.442 75.7369 470.632 75.0658 466.794 75.0019C459.012 74.9295 451.332 76.9577 444.427 80.9094C430.075 89.0767 421.72 105.821 421.041 123.294C420.71 131.927 422.389 140.51 425.919 148.228C429.449 155.945 434.713 162.54 441.211 167.387C453.493 176.711 470.608 180.003 484.669 173.9C492.797 170.39 499.877 164.457 505.113 156.764C510.006 149.741 512.765 141.199 513 132.351C512.997 132.252 512.965 132.157 512.91 132.079C512.854 132.001 512.777 131.945 512.69 131.92C512.603 131.894 512.511 131.899 512.427 131.935C512.343 131.971 512.272 132.036 512.224 132.12L512.095 132.067Z" fill="#111111"/>
<path d="M480.437 81.8227C479.51 67.5269 480.957 53.1956 487.412 40.4941C493.55 28.0385 503.804 18.5903 516.097 14.0637C522.48 11.7878 529.195 10.8149 535.903 11.1939C542.142 11.5308 548.286 12.9976 554.082 15.534C560.111 18.2038 565.587 22.1651 570.184 27.1829C574.782 32.2007 578.408 38.173 580.848 44.7457C580.588 44.0726 580.946 45.0468 580.962 45.1C581.173 45.7023 581.385 46.2869 581.58 46.8715C581.921 47.8812 582.23 48.8732 582.507 49.883C583.059 51.8139 583.515 53.7448 583.889 55.7111C584.63 59.4357 584.996 63.2375 584.978 67.0486C584.978 69.0504 584.978 71.0521 584.751 73.0539C584.751 73.4613 584.751 73.8865 584.637 74.3116L584.539 75.2505C584.539 74.8077 584.539 74.8077 584.539 75.2505C584.409 76.1894 584.263 77.1283 584.084 78.0495C583.705 80.1182 583.227 82.164 582.653 84.1787C582.36 85.1708 582.002 86.1628 581.726 87.1725C581.604 87.574 581.501 87.982 581.417 88.3949L581.222 89.936C581.222 90.6092 581.222 90.7155 581.222 90.2726C580.973 91.4035 581.055 92.5911 581.458 93.6683C581.86 94.7455 582.563 95.6582 583.466 96.278C584.396 96.8682 585.48 97.1066 586.547 96.956C587.615 96.8054 588.607 96.2743 589.369 95.4454C590.817 93.5805 591.951 91.4515 592.718 89.1566C593.374 87.1693 593.917 85.1401 594.345 83.0804C595.261 78.8595 595.805 74.553 595.971 70.2195C596.197 62.0774 595.118 53.9547 592.783 46.216C588.162 29.9776 577.953 16.3167 564.294 8.09387C550.277 -0.00967611 533.988 -2.1197 518.617 2.17714C503.837 6.57606 491.238 17.1324 483.542 31.5659C479.406 39.241 476.699 47.7285 475.575 56.5437C475.006 60.926 474.859 65.361 475.135 69.7766C475.49 74.191 476.541 78.5057 478.241 82.5313C478.713 83.7005 480.518 83.1159 480.437 81.8936V81.8227Z" fill="#111111"/>
<path d="M566.428 149.974C568.571 153.487 571.1 156.7 573.958 159.54C577.08 162.437 580.5 164.926 584.149 166.957C591.437 170.96 599.486 173.031 607.643 172.999C615.842 173.039 623.938 171.009 631.3 167.067C638.662 163.125 645.09 157.378 650.084 150.273C659.339 136.796 662.79 118.034 657.533 101.985C652.39 86.359 640.247 73.0758 625.01 69.8519C616.314 68.0345 607.318 69.1402 599.21 73.023C595.391 74.7816 591.87 77.2292 588.793 80.2635C587.101 81.97 585.577 83.8653 584.246 85.9186C582.776 88.127 581.895 90.7366 581.698 93.4587C581.247 97.4753 586.133 100.012 588.987 98.0214C591.841 96.0307 593.921 93.2649 596.517 90.8866L597.178 90.2876C596.34 91.0275 597.081 90.2876 597.259 90.2876L599.113 88.8783C600.439 87.8878 601.824 86.9933 603.257 86.2005L604.273 85.6543C604.434 85.5663 605.515 85.0377 604.821 85.3725C604.128 85.7072 605.224 85.1963 605.386 85.1434L606.192 84.8087C607.806 84.1947 609.454 83.6945 611.126 83.3113C611.787 83.1704 612.432 83.047 613.093 82.9413C614.077 82.7475 612.11 82.9413 613.093 82.9413C613.48 82.9413 613.851 82.9413 614.238 82.8356C615.849 82.721 617.465 82.721 619.076 82.8356C619.479 82.8356 621.511 83.1175 620.221 82.9237C620.882 83.0118 621.543 83.1527 622.188 83.2937C623.782 83.6572 625.35 84.1458 626.88 84.7559L627.944 85.1963C627.702 85.0906 626.928 84.6854 628.041 85.1963C628.734 85.5662 629.412 85.9186 630.089 86.3238C631.44 87.1125 632.743 87.9951 633.991 88.9663C634.297 89.1954 634.62 89.442 634.926 89.7062C634.088 89.0015 634.926 89.7063 634.926 89.7943C635.523 90.3405 636.103 90.8866 636.668 91.4503C637.867 92.6662 639.003 93.9543 640.07 95.3085C640.248 95.5375 641.36 97.0702 640.731 96.1365C641.215 96.8059 641.65 97.4929 642.086 98.1976C643.008 99.6761 643.843 101.218 644.585 102.813C644.94 103.553 645.278 104.311 645.585 105.086C645.891 105.861 645.295 104.24 645.585 105.244L645.988 106.425C646.54 108.108 646.998 109.825 647.359 111.569C647.504 112.291 647.617 113.014 647.746 113.736C647.907 114.793 647.649 112.873 647.746 114C647.746 114.44 647.842 114.881 647.875 115.339C648.017 117.232 648.055 119.132 647.987 121.029C647.987 121.928 647.875 122.791 647.794 123.707C647.794 123.848 647.665 124.958 647.794 124.024C647.794 124.465 647.665 124.905 647.6 125.345C647.316 127.129 646.939 128.893 646.472 130.631C645.677 133.807 644.494 136.853 642.956 139.686C639.897 145.663 635.573 150.755 630.347 154.537C624.713 158.61 618.306 161.23 611.61 162.2C604.282 163.274 596.828 162.601 589.761 160.227C582.061 157.684 574.856 153.611 568.508 148.212C567.347 147.208 565.283 148.512 566.251 150.115L566.428 149.974Z" fill="#111111"/>
<path d="M484.901 258.989C486.267 249.029 487.109 238.993 487.421 228.929C488.193 217.156 488.193 205.338 487.421 193.565C486.618 184.652 485.348 175.797 483.616 167.042C483.461 166.352 483.18 165.704 482.79 165.134C482.399 164.565 481.908 164.087 481.345 163.728C480.782 163.369 480.158 163.137 479.511 163.045C478.864 162.953 478.206 163.003 477.577 163.192C476.948 163.382 476.36 163.706 475.848 164.147C475.337 164.588 474.912 165.136 474.598 165.759C474.285 166.382 474.09 167.067 474.025 167.773C473.959 168.479 474.025 169.192 474.217 169.871C477.059 184.154 478.417 198.739 478.266 213.351C478.088 223.023 477.551 232.696 476.852 242.35C476.64 245.144 476.413 247.955 476.152 250.749C476.039 251.916 475.909 253.065 475.779 254.286C475.648 255.506 475.892 253.454 475.779 254.692L475.535 256.284C475.229 257.64 475.413 259.071 476.048 260.285C476.683 261.498 477.721 262.401 478.949 262.808C480.196 263.183 481.528 263.004 482.653 262.311C483.778 261.618 484.604 260.468 484.95 259.113L484.901 258.989Z" fill="#111111"/>
<path d="M513.982 233.894C516.037 233.328 516.513 230.957 517.277 229.135C518.106 226.824 518.676 224.42 518.975 221.972C519.759 217.015 520.094 211.993 519.977 206.972C520.063 196.883 517.901 186.91 513.659 177.839C513.22 177.058 512.522 176.47 511.697 176.187C510.871 175.903 509.975 175.944 509.176 176.3C508.391 176.667 507.754 177.309 507.376 178.113C506.997 178.917 506.901 179.834 507.103 180.705C508.445 190.133 510.296 199.49 510.857 209.006C511.146 213.747 511.18 218.558 511.078 223.298C511.078 225.315 510.042 235.026 514.033 233.911L513.982 233.894Z" fill="#111111"/>
<path d="M543.857 228.592C545.096 225.871 544.998 222.208 544.998 219.203C544.998 216.198 544.998 213.352 544.998 210.418C544.786 204.124 544.477 197.829 544.216 191.552C543.955 185.275 543.531 179.247 543.189 173.094C543.067 166.657 542.335 160.251 541.005 153.978C540.076 150.315 534.176 149.711 533.639 153.978C533.14 157.25 532.932 160.567 533.019 163.883C533.166 166.799 533.378 169.733 533.557 172.667C533.948 178.962 534.274 185.257 534.747 191.552L536.165 209.992C536.393 213.068 536.833 216.144 537.208 219.203C537.583 222.261 537.729 226.067 539.278 228.592C539.52 229.022 539.859 229.377 540.262 229.624C540.666 229.871 541.121 230 541.584 230C542.046 230 542.501 229.871 542.905 229.624C543.309 229.377 543.648 229.022 543.89 228.592H543.857Z" fill="#111111"/>
<path d="M572.298 222.426C573.548 214.721 572.859 206.387 572.298 198.628C571.785 190.582 571.817 182.159 569.461 174.489C568.58 171.586 563.932 170.779 563.452 174.489C562.923 178.567 562.858 182.704 563.259 186.8C563.628 190.743 564.061 194.685 564.461 198.628C565.263 206.441 565.855 215.025 568.388 222.426C569.013 224.218 571.849 224.81 572.234 222.426H572.298Z" fill="#111111"/>
<path d="M34.2267 425C23.826 425 15.5229 422.447 9.31729 417.34C3.11167 412.233 0.00885096 406.223 0.00885096 399.307V51.2609C-0.103526 47.1984 0.856192 43.1859 2.77446 39.698C4.69273 36.2102 7.48928 33.3928 10.8334 31.5792C17.9736 27.2141 26.036 24.947 34.2267 25.0009H137.353C153.746 24.9438 170.044 27.7147 185.639 33.2105C200.72 38.407 213.92 48.6217 223.378 62.4139C233.094 76.457 237.958 96.4283 237.969 122.328C237.969 144.575 234.198 162.897 226.655 177.295C219.668 191.151 208.589 202.04 195.209 208.2C205.034 211.882 214.216 217.343 222.368 224.353C230.397 231.583 236.625 240.894 240.479 251.429C244.826 262.741 247 277.517 247 295.757V307.247C247 336.066 242.56 359.046 233.681 376.186C224.802 393.326 212.728 405.738 197.458 413.422C181.247 421.295 163.648 425.217 145.895 424.911L34.2267 425ZM77.9323 175.486H130.767C140.483 175.486 147.694 171.473 152.4 163.447C156.992 155.795 159.439 146.856 159.442 137.718C159.477 131.358 158.369 125.052 156.182 119.154C154.178 113.607 150.886 108.72 146.629 104.969C142.092 101.198 136.49 99.2605 130.783 99.4899H77.9323V175.486ZM77.9323 350.582H128.24C140.988 350.582 150.884 346.569 157.926 338.543C164.969 330.516 168.49 317.75 168.49 300.243V291.484C168.49 272.878 164.969 259.834 157.926 252.351C150.884 244.868 140.988 241.133 128.24 241.145H77.9323V350.582Z" fill="#111111"/>
</svg>
