<svg width="35" height="35" viewBox="0 0 35 35" fill="none" xmlns="http://www.w3.org/2000/svg">
<path d="M17.5 0C7.85011 0 0 7.85011 0 17.5C0 27.1499 7.85011 35 17.5 35C27.1499 35 35 27.1499 35 17.5C35 7.85011 27.1499 0 17.5 0Z" fill="#2196F3"/>
<path d="M26.3697 13.7915L16.8904 23.2705C16.606 23.5549 16.2327 23.698 15.8594 23.698C15.4861 23.698 15.1128 23.5549 14.8284 23.2705L10.0889 18.531C9.51854 17.9609 9.51854 17.0391 10.0889 16.469C10.659 15.8987 11.5805 15.8987 12.1509 16.469L15.8594 20.1775L24.3077 11.7295C24.8778 11.1592 25.7993 11.1592 26.3697 11.7295C26.9398 12.2996 26.9398 13.2212 26.3697 13.7915Z" fill="#FAFAFA"/>
</svg>
