<svg width="37" height="37" viewBox="0 0 37 37" fill="none" xmlns="http://www.w3.org/2000/svg">
<circle cx="18.5" cy="18.5" r="17.5089" fill="#2D3748" stroke="#F8F8F8" stroke-width="1.98214"/>
<path d="M22.0776 27.0898H24.5828C25.2473 27.0898 25.8845 26.8258 26.3543 26.356C26.8241 25.8862 27.0881 25.249 27.0881 24.5846V22.0793" stroke="#F8F8F8" stroke-width="0.954365" stroke-linecap="round" stroke-linejoin="round"/>
<path d="M27.0881 14.9213V12.4161C27.0881 11.7517 26.8241 11.1145 26.3543 10.6446C25.8845 10.1748 25.2473 9.91089 24.5828 9.91089H22.0776" stroke="#F8F8F8" stroke-width="0.954365" stroke-linecap="round" stroke-linejoin="round"/>
<path d="M14.9203 27.0898H12.4151C11.7507 27.0898 11.1135 26.8258 10.6437 26.356C10.1739 25.8862 9.90991 25.249 9.90991 24.5846V22.0793" stroke="#F8F8F8" stroke-width="0.954365" stroke-linecap="round" stroke-linejoin="round"/>
<path d="M9.90991 14.9213V12.4161C9.90991 11.7517 10.1739 11.1145 10.6437 10.6446C11.1135 10.1748 11.7507 9.91089 12.4151 9.91089H14.9203" stroke="#F8F8F8" stroke-width="0.954365" stroke-linecap="round" stroke-linejoin="round"/>
<circle cx="18.5903" cy="18.5912" r="2.79493" stroke="#F8F8F8" stroke-width="0.954365"/>
</svg>
