<svg width="35" height="35" viewBox="0 0 35 35" fill="none" xmlns="http://www.w3.org/2000/svg">
<g clip-path="url(#clip0)">
<path d="M14.475 29.3239C22.4693 29.3239 28.9499 22.8433 28.9499 14.849C28.9499 6.85468 22.4693 0.374023 14.475 0.374023C6.48066 0.374023 0 6.85468 0 14.849C0 22.8433 6.48066 29.3239 14.475 29.3239Z" fill="#365E7D"/>
<path d="M28.9499 14.849C28.9499 6.8547 22.4692 0.374023 14.4749 0.374023C14.1494 0.374023 13.8267 0.38585 13.5066 0.407041C20.7122 0.883096 26.4764 6.63116 26.9771 13.8299C27.0112 14.319 26.6103 14.7235 26.1201 14.713C26.0449 14.7114 25.9696 14.7106 25.8941 14.7106C19.9241 14.7106 15.0845 19.5503 15.0845 25.5202C15.0845 26.0808 15.1273 26.6314 15.2098 27.1689C15.3727 28.2314 14.601 29.217 13.5285 29.2896C13.5212 29.29 13.5139 29.2905 13.5066 29.291C13.8267 29.3121 14.1494 29.324 14.4749 29.324C22.5164 29.3239 28.9499 22.7899 28.9499 14.849Z" fill="#2B4D66"/>
<path d="M14.4749 25.9604C20.6116 25.9604 25.5863 20.9856 25.5863 14.849C25.5863 8.71229 20.6116 3.73755 14.4749 3.73755C8.33827 3.73755 3.36353 8.71229 3.36353 14.849C3.36353 20.9856 8.33827 25.9604 14.4749 25.9604Z" fill="#F4FBFF"/>
<path d="M25.5864 14.849C25.5864 8.71233 20.6116 3.73755 14.475 3.73755C14.1739 3.73755 13.8758 3.74992 13.5808 3.77344C19.3206 4.23056 23.8315 9.049 23.7979 14.9141C23.7977 14.9144 23.7975 14.9146 23.7973 14.9149C19.1087 15.8366 15.6118 19.7456 15.1392 24.4101C15.0579 25.212 14.43 25.8532 13.6268 25.9206C13.6115 25.9219 13.5962 25.9232 13.5808 25.9244C20.051 26.44 25.5864 21.3425 25.5864 14.849Z" fill="#DAF1F4"/>
<path d="M14.4749 7.17498C14.1832 7.17498 13.9468 6.93853 13.9468 6.64684V5.90022C13.9468 5.60846 14.1832 5.37207 14.4749 5.37207C14.7666 5.37207 15.0031 5.60853 15.0031 5.90022V6.64684C15.0031 6.93853 14.7667 7.17498 14.4749 7.17498Z" fill="#365E7D"/>
<path d="M20.2745 9.57741C20.1393 9.57741 20.0042 9.5258 19.901 9.42264C19.6948 9.2164 19.6948 8.88199 19.9011 8.67568L20.429 8.14781C20.6353 7.94157 20.9697 7.94164 21.176 8.14788C21.3822 8.35412 21.3822 8.68853 21.1759 8.89484L20.648 9.42271C20.5449 9.5258 20.4097 9.57741 20.2745 9.57741Z" fill="#365E7D"/>
<path d="M23.4235 15.3768H22.6768C22.3851 15.3768 22.1487 15.1404 22.1487 14.8487C22.1487 14.5569 22.3851 14.3206 22.6768 14.3206H23.4235C23.7153 14.3206 23.9517 14.557 23.9517 14.8487C23.9517 15.1404 23.7152 15.3768 23.4235 15.3768Z" fill="#365E7D"/>
<path d="M14.6922 24.5427C14.4004 24.5427 14.1641 24.3063 14.1641 24.0146V23.2679C14.1641 22.9761 14.4005 22.7397 14.6922 22.7397C14.9839 22.7397 15.2203 22.9762 15.2203 23.2679V24.0146C15.2204 24.3063 14.984 24.5427 14.6922 24.5427Z" fill="#365E7D"/>
<path d="M8.14734 21.7042C8.01219 21.7042 7.87697 21.6526 7.77382 21.5495C7.56758 21.3432 7.56758 21.0088 7.77382 20.8024L8.30176 20.2745C8.50807 20.0683 8.84241 20.0683 9.04879 20.2745C9.25503 20.4808 9.25503 20.8152 9.04879 21.0215L8.52085 21.5495C8.41763 21.6526 8.28248 21.7042 8.14734 21.7042Z" fill="#365E7D"/>
<path d="M6.27306 15.3768H5.52644C5.23468 15.3768 4.99829 15.1404 4.99829 14.8487C4.99829 14.5569 5.23475 14.3206 5.52644 14.3206H6.27313C6.56488 14.3206 6.80127 14.557 6.80127 14.8487C6.80127 15.1404 6.56481 15.3768 6.27306 15.3768Z" fill="#365E7D"/>
<path d="M8.67527 9.57741C8.54012 9.57741 8.4049 9.5258 8.30182 9.42271L7.77388 8.89484C7.56757 8.6886 7.56757 8.35419 7.77381 8.14788C7.98012 7.94157 8.31453 7.94164 8.52077 8.14781L9.04871 8.67568C9.25502 8.88192 9.25502 9.21633 9.04878 9.42264C8.94563 9.5258 8.81041 9.57741 8.67527 9.57741Z" fill="#365E7D"/>
<path d="M14.4748 15.5944H11.9083C11.6165 15.5944 11.3801 15.3579 11.3801 15.0662C11.3801 14.7746 11.6166 14.5381 11.9083 14.5381H13.9467V10.0679C13.9467 9.77618 14.1831 9.53979 14.4748 9.53979C14.7665 9.53979 15.003 9.77625 15.003 10.0679V15.0663C15.003 15.3579 14.7666 15.5944 14.4748 15.5944Z" fill="#2B4D66"/>
<path d="M25.8942 34.6261C30.9232 34.6261 35.0001 30.5492 35.0001 25.5202C35.0001 20.4911 30.9232 16.4143 25.8942 16.4143C20.8652 16.4143 16.7883 20.4911 16.7883 25.5202C16.7883 30.5492 20.8652 34.6261 25.8942 34.6261Z" fill="#DD636E"/>
<path d="M25.8942 16.4143C25.5397 16.4143 25.1901 16.4353 24.8462 16.4747C29.3815 16.9945 32.9041 20.8457 32.9041 25.5202C32.9041 30.1947 29.3815 34.0458 24.8462 34.5656C25.1902 34.6051 25.5397 34.6261 25.8942 34.6261C30.9233 34.6261 35.0001 30.5492 35.0001 25.5202C35.0001 20.4912 30.9233 16.4143 25.8942 16.4143Z" fill="#DA4A54"/>
<path d="M27.3879 25.5203L30.0707 22.8374C30.4833 22.425 30.4833 21.7561 30.0707 21.3436C29.6583 20.9311 28.9894 20.9311 28.5769 21.3436L25.8941 24.0264L23.2112 21.3436C22.7987 20.931 22.1299 20.9311 21.7174 21.3436C21.3048 21.7561 21.3048 22.425 21.7174 22.8374L24.4002 25.5203L21.7174 28.2031C21.3048 28.6156 21.3048 29.2845 21.7174 29.697C21.9236 29.9032 22.194 30.0064 22.4643 30.0064C22.7347 30.0064 23.005 29.9032 23.2113 29.697L25.8941 27.0141L28.577 29.697C28.7832 29.9033 29.0536 30.0064 29.3239 30.0064C29.5943 30.0064 29.8646 29.9032 30.0709 29.697C30.4834 29.2845 30.4834 28.6156 30.0709 28.2031L27.3879 25.5203Z" fill="#F4FBFF"/>
<path d="M27.3881 25.5201L30.0709 22.8373C30.4834 22.4248 30.4834 21.7559 30.0709 21.3434C29.6686 20.9412 29.0231 20.9324 28.6088 21.3147C28.6193 21.3244 28.6303 21.3332 28.6406 21.3434C29.0532 21.7559 29.0532 22.4248 28.6406 22.8373L26.4 25.0779C26.1557 25.3221 26.1557 25.7181 26.4 25.9624L28.6406 28.203C29.0532 28.6155 29.0532 29.2844 28.6406 29.6968C28.6304 29.7071 28.6193 29.7159 28.6088 29.7256C28.8107 29.912 29.067 30.0063 29.324 30.0063C29.5944 30.0063 29.8646 29.9032 30.071 29.6969C30.4835 29.2844 30.4835 28.6155 30.071 28.2031L27.3881 25.5201Z" fill="#DAF1F4"/>
</g>
<defs>
<clipPath id="clip0">
<rect width="35" height="35" fill="white"/>
</clipPath>
</defs>
</svg>
