<svg width="30" height="30" viewBox="0 0 30 30" fill="none" xmlns="http://www.w3.org/2000/svg">
<path d="M27.5 3.75H2.50002C1.12119 3.75 0 4.87119 0 6.25002V23.75C0 25.1288 1.12119 26.25 2.50002 26.25H27.5C28.8788 26.25 30 25.1288 30 23.75V6.25002C30 4.87119 28.8788 3.75 27.5 3.75Z" fill="#303C42"/>
<path d="M18.7686 14.9552C22.0157 12.0025 27.0225 7.42179 28.6797 5.90503C28.7128 6.01694 28.7497 6.1281 28.7497 6.25056V23.7506C28.7497 23.8661 28.7131 23.9701 28.6837 24.0764C27.0133 22.4834 22.0049 17.735 18.7686 14.9552Z" fill="#F2F2F2"/>
<path d="M27.4991 5C27.5912 5 27.6723 5.03357 27.7588 5.05256C25.5944 7.03344 18.4176 13.599 15.9061 15.8618C15.7095 16.0388 15.3928 16.25 14.9991 16.25C14.6054 16.25 14.2886 16.0388 14.0915 15.8612C11.5803 13.5988 4.40306 7.03285 2.23901 5.05268C2.32562 5.03369 2.40694 5.00006 2.49911 5.00006H27.4991V5Z" fill="#FAFAFA"/>
<path d="M1.31579 24.0753C1.28632 23.969 1.24982 23.865 1.24982 23.7495V6.24952C1.24982 6.12706 1.28673 6.01597 1.31978 5.90405C2.97634 7.42022 7.984 12.0013 11.231 14.954C7.99448 17.7341 2.98554 22.483 1.31579 24.0753Z" fill="#F2F2F2"/>
<path d="M2.49949 25.0007C2.39964 25.0007 2.31087 24.9659 2.21765 24.9436C3.94306 23.2988 8.98388 18.5226 12.1635 15.8025C12.578 16.1785 12.9566 16.5213 13.2551 16.7903C13.7702 17.2554 14.3732 17.5007 14.9995 17.5007C15.6257 17.5007 16.2287 17.2553 16.7432 16.7909C17.0418 16.5218 17.4207 16.1787 17.8355 15.8025C21.0152 18.5223 26.0553 23.2982 27.7813 24.9436C27.6881 24.9659 27.5994 25.0007 27.4994 25.0007H2.49949Z" fill="#FAFAFA"/>
<path d="M10.7695 15.355C10.9256 15.2191 11.0818 15.083 11.2308 14.955C7.98368 12.0023 2.97608 7.4212 1.31952 5.90503L10.7695 15.355ZM28.6796 5.90503C27.0224 7.42173 22.0156 12.0024 18.7684 14.9551C22.0048 17.7349 27.0132 22.4832 28.6836 24.0763C28.7131 23.97 28.7496 23.866 28.7496 23.7505V6.25056C28.7496 6.1281 28.7126 6.01694 28.6796 5.90503ZM16.7433 16.7907C16.2288 17.2552 15.6258 17.5006 14.9996 17.5006C14.3734 17.5006 13.7703 17.2552 13.2552 16.7901C12.9567 16.5212 12.5781 16.1783 12.1636 15.8023C11.9999 15.9423 11.8284 16.091 11.6556 16.2412L20.4151 25.0006H27.4996C27.5996 25.0006 27.6882 24.9657 27.7815 24.9435C26.0555 23.298 21.0154 18.5221 17.8356 15.8023C17.4208 16.1785 17.042 16.5216 16.7433 16.7907Z" fill="url(#paint0_linear)"/>
<path d="M27.5 3.75H2.50002C1.12119 3.75 0 4.87119 0 6.25002V23.75C0 25.1288 1.12119 26.25 2.50002 26.25H27.5C28.8788 26.25 30 25.1288 30 23.75V6.25002C30 4.87119 28.8788 3.75 27.5 3.75Z" fill="url(#paint1_linear)"/>
<defs>
<linearGradient id="paint0_linear" x1="8.15969" y1="-0.933709" x2="30.9273" y2="21.8339" gradientUnits="userSpaceOnUse">
<stop stop-opacity="0.2"/>
<stop offset="1" stop-opacity="0"/>
</linearGradient>
<linearGradient id="paint1_linear" x1="-0.884497" y1="7.59399" x2="30.8846" y2="22.4086" gradientUnits="userSpaceOnUse">
<stop stop-color="white" stop-opacity="0.2"/>
<stop offset="1" stop-color="white" stop-opacity="0"/>
</linearGradient>
</defs>
</svg>
