<svg width="30" height="30" viewBox="0 0 30 30" fill="none" xmlns="http://www.w3.org/2000/svg">
<path d="M15.0002 0C11.9161 0 8.39001 4.79027 8.39001 10.6779C8.39001 18.2852 14.5818 29.3634 14.8021 29.8317C14.8526 29.9389 14.9246 29.9999 15.0002 29.9999C15.1444 29.9999 15.282 29.9389 15.3783 29.8317C15.7988 29.3634 25.6781 18.2852 25.6781 10.6779C25.6782 4.79027 20.8882 0 15.0002 0ZM15.0002 16.2712C11.9111 16.2712 9.40697 13.7671 9.40697 10.6779C9.40697 7.58883 11.9111 5.08476 15.0002 5.08476C18.0893 5.08476 20.5935 7.58889 20.5935 10.678C20.5935 13.7671 18.0893 16.2712 15.0002 16.2712Z" fill="#FF6469"/>
<path d="M14.8019 29.8317C14.5816 29.3634 8.38983 18.2853 8.38983 10.678C8.38977 4.79027 11.9158 0 15 0C9.112 0 4.32202 4.79027 4.32202 10.6779C4.32202 18.2852 14.2013 29.3634 14.6219 29.8317C14.7182 29.9389 14.8558 29.9999 15 29.9999C14.9244 30 14.8524 29.9389 14.8019 29.8317Z" fill="#D2555F"/>
</svg>
