<svg width="265" height="265" viewBox="0 0 265 265" fill="none" xmlns="http://www.w3.org/2000/svg">
<mask id="mask0" mask-type="alpha" maskUnits="userSpaceOnUse" x="70" y="66" width="125" height="125">
<circle cx="132.5" cy="128.5" r="62.5" fill="#C4C4C4"/>
</mask>
<g mask="url(#mask0)">
<g filter="url(#filter0_d)">
<circle cx="132.5" cy="128.5" r="62.5" fill="#E6AF78"/>
</g>
<path d="M115.93 85.547C115.75 85.747 114.67 85.867 114.4 85.977C112.65 86.647 111.25 87.927 109.92 89.207C107.23 91.797 106.01 95.607 104.62 99.077C101.62 106.497 101.08 114.887 103.1 122.637C104.12 126.547 105.78 130.387 105.73 134.427C105.68 138.217 104.11 141.927 104.45 145.697C104.8 149.597 107.12 153.017 109.49 156.137C111.81 159.197 114.31 162.197 117.48 164.357C124.06 168.827 133.78 170.257 141.51 171.517C144.44 171.997 147.39 171.817 150.31 172.407C154.78 173.307 159.18 174.747 163.73 175.257C167.87 175.717 171.39 177.327 175.49 178.097C175.46 174.987 175.02 171.887 174.2 168.887C173.54 166.477 172.19 164.777 171.29 162.597C169.27 157.707 172.76 150.737 173.27 145.737C173.78 140.717 172.75 135.557 170.35 131.127C168.68 128.047 166.37 125.297 165.22 121.997C163.37 116.657 165.13 111.447 164.97 106.037C164.83 101.127 164.16 96.517 161.6 92.227C155.33 81.677 144.7 75.737 132.36 77.227C125.93 77.997 120.32 80.787 115.93 85.547Z" fill="#271214"/>
<path d="M172.65 190.857C172.25 181.247 171.36 168.917 169.43 165.257C166.13 158.997 147.09 158.397 144.04 153.327C140.99 148.257 141.5 139.017 141.5 139.017L132.87 139.317L124.24 139.017C124.24 139.017 124.75 148.257 121.7 153.327C118.66 158.397 99.61 158.997 96.31 165.257C94.38 168.917 93.49 181.247 93.09 190.857H172.65Z" fill="#E9B19D"/>
<path d="M144.46 153.887C144.3 153.707 144.15 153.527 144.04 153.327C140.99 148.257 141.5 139.017 141.5 139.017L132.87 139.317L124.24 139.017C124.24 139.017 124.54 144.587 123.25 149.447C127.95 152.687 135.56 156.217 144.46 153.887Z" fill="#D99885"/>
<path d="M111.58 117.397C111.58 117.397 107.87 114.267 104.94 117.827C102.5 120.797 105.82 126.817 109.13 128.737C112.44 130.657 113.67 128.567 113.67 128.567L111.58 117.397Z" fill="#E9B19D"/>
<path d="M111.76 122.747C111.76 122.747 109.59 118.627 106.88 118.517C104.17 118.407 109.16 119.387 108.94 121.227C108.72 123.067 106.55 124.697 107.75 124.587C108.94 124.477 110.03 122.197 110.57 123.397C111.11 124.587 111.87 125.457 111.87 124.807C111.87 124.157 111.76 122.747 111.76 122.747Z" fill="#D99885"/>
<path d="M154.16 117.397C154.16 117.397 157.87 114.267 160.8 117.827C163.24 120.797 159.92 126.817 156.61 128.737C153.29 130.657 152.07 128.567 152.07 128.567L154.16 117.397Z" fill="#E9B19D"/>
<path d="M153.99 122.747C153.99 122.747 156.16 118.627 158.87 118.517C161.58 118.407 156.59 119.387 156.81 121.227C157.03 123.067 159.2 124.697 158 124.587C156.81 124.477 155.72 122.197 155.18 123.397C154.64 124.587 153.88 125.457 153.88 124.807C153.88 124.157 153.99 122.747 153.99 122.747Z" fill="#D99885"/>
<path d="M132.87 86.397C118.27 86.937 108.9 96.307 109.08 103.697C109.27 111.447 110.16 132.887 117.37 140.637C119.38 142.797 121.47 144.447 123.44 145.717C129.19 149.397 136.54 149.397 142.29 145.717C144.26 144.457 146.36 142.797 148.36 140.637C155.57 132.887 156.46 111.447 156.65 103.697C156.84 96.307 147.47 86.937 132.87 86.397Z" fill="#EDBBA5"/>
<path d="M156.66 103.697C156.84 96.307 147.47 86.937 132.87 86.397C128.11 86.567 123.91 87.697 120.41 89.387C119.73 93.467 119.46 96.247 119.46 96.247C119.46 96.247 119.96 105.937 127.41 109.407C134.86 112.887 143.31 113.627 145.54 123.317C147.78 133.007 147.21 142.647 136.53 146.377C133 147.607 129.16 147.147 126.83 147.347C131.9 149.227 137.63 148.717 142.31 145.717C144.28 144.457 146.38 142.797 148.38 140.637C155.58 132.887 156.47 111.437 156.66 103.697Z" fill="#E2A58E"/>
<path d="M183.73 190.857C182.59 181.287 180.01 169.027 174.21 164.327C166.27 157.887 152.05 154.507 146.39 153.357C145.53 159.787 139.81 164.767 132.86 164.767C125.91 164.767 120.19 159.797 119.33 153.357C113.67 154.507 99.45 157.897 91.51 164.327C85.71 169.027 83.14 181.287 82 190.857H183.73Z" fill="#7743B5"/>
<path d="M174.22 164.337C166.28 157.897 152.06 154.517 146.4 153.367C146.19 154.927 145.69 156.407 144.96 157.747C148.89 159.327 155.69 162.837 157.64 168.687C160.09 176.047 149.9 180.637 148.78 190.867H183.74C182.59 181.287 180.02 169.027 174.22 164.337Z" fill="#6839A8"/>
<path d="M102.93 190.857C101.62 182.487 100.72 173.587 99.07 177.447C97.88 180.217 95.43 185.527 93.98 190.857H102.93Z" fill="#6839A8"/>
<path d="M154.92 124.157C155.62 120.247 153.53 116.287 150.9 113.277C149.55 111.747 147.98 110.307 146.03 109.707C144.34 109.177 142.52 109.327 140.75 109.387C138.08 109.477 135.41 109.367 132.76 109.047C130.35 108.757 127.88 108.257 125.92 106.827C124.24 105.597 123.28 103.877 122.24 102.117C121.46 100.787 120.28 99.867 119.61 98.447C118.72 102.687 116.94 107.127 114.01 110.367C110.9 113.797 110.57 123.287 110.57 123.287C110.57 123.287 106.63 110.367 107.91 101.387C109.19 92.407 117.15 84.717 130.95 84.717C144.75 84.717 154.85 88.727 157.9 97.707C160.68 105.917 157.44 116.637 154.85 124.517C154.87 124.407 154.9 124.277 154.92 124.157Z" fill="#271214"/>
<path d="M125.1 121.627C125.1 122.817 124.32 123.787 123.35 123.787C122.38 123.787 121.6 122.817 121.6 121.627C121.6 120.437 122.38 119.467 123.35 119.467C124.32 119.467 125.1 120.437 125.1 121.627Z" fill="#271214"/>
<path d="M144.77 121.627C144.77 122.817 143.99 123.787 143.02 123.787C142.05 123.787 141.27 122.817 141.27 121.627C141.27 120.437 142.05 119.467 143.02 119.467C143.99 119.467 144.77 120.437 144.77 121.627Z" fill="#271214"/>
<path d="M134.31 120.767C134.31 120.767 133.28 122.187 134.83 125.167C136.38 128.147 137.81 130.087 136.9 131.117C135.99 132.147 133.54 133.057 133.67 132.667C133.8 132.277 135.8 131.137 134.76 128.427C133.71 125.707 131.98 123.347 134.31 120.767Z" fill="#D99885"/>
<path d="M117.43 118.537C117.43 118.537 117.95 113.917 124.62 113.787C126.15 113.757 126.27 115.717 123.09 115.767C121.12 115.797 117.43 118.537 117.43 118.537Z" fill="#271214"/>
<path d="M148.22 118.747C148.22 118.747 147.9 114.107 141.24 113.687C139.72 113.587 139.5 115.537 142.68 115.727C144.66 115.847 148.22 118.747 148.22 118.747Z" fill="#271214"/>
<path d="M126.69 135.747C126.59 135.247 126.96 134.787 127.47 134.787C130.33 134.797 139.43 135.517 139.43 136.537C139.43 137.747 136.68 142.047 131.36 140.507C127.73 139.467 126.92 136.967 126.69 135.747Z" fill="#BA3C54"/>
<path d="M131.36 140.517C133.74 141.207 135.61 140.717 136.95 139.867C133.39 136.317 129.79 137.777 128.22 138.727C128.91 139.427 129.9 140.087 131.36 140.517Z" fill="#DA677D"/>
<path d="M138.31 136.547C138.48 136.357 138.6 136.187 138.7 136.037C136.57 135.307 130.33 134.827 127.76 134.787C127.82 135.137 128.21 135.577 129.89 136.037C132.67 136.817 137.59 137.367 138.31 136.547Z" fill="white"/>
<path opacity="0.35" d="M119.61 130.157C124.873 130.157 129.14 125.89 129.14 120.627C129.14 115.364 124.873 111.097 119.61 111.097C114.347 111.097 110.08 115.364 110.08 120.627C110.08 125.89 114.347 130.157 119.61 130.157Z" fill="white"/>
<path d="M119.61 131.017C113.88 131.017 109.23 126.357 109.23 120.627C109.23 114.897 113.89 110.237 119.61 110.237C125.34 110.237 130 114.897 130 120.627C130 126.357 125.34 131.017 119.61 131.017ZM119.61 111.947C114.83 111.947 110.93 115.837 110.93 120.627C110.93 125.417 114.82 129.307 119.61 129.307C124.4 129.307 128.29 125.417 128.29 120.627C128.29 115.847 124.4 111.947 119.61 111.947Z" fill="#7743B5"/>
<path opacity="0.35" d="M145.5 130.157C150.763 130.157 155.03 125.89 155.03 120.627C155.03 115.364 150.763 111.097 145.5 111.097C140.237 111.097 135.97 115.364 135.97 120.627C135.97 125.89 140.237 130.157 145.5 130.157Z" fill="white"/>
<path d="M145.5 131.017C139.77 131.017 135.11 126.357 135.11 120.627C135.11 114.897 139.77 110.237 145.5 110.237C151.23 110.237 155.88 114.897 155.88 120.627C155.89 126.357 151.23 131.017 145.5 131.017ZM145.5 111.947C140.71 111.947 136.82 115.837 136.82 120.627C136.82 125.417 140.71 129.307 145.5 129.307C150.28 129.307 154.18 125.417 154.18 120.627C154.18 115.847 150.29 111.947 145.5 111.947Z" fill="#7743B5"/>
<path d="M135.97 119.777H129.14V121.487H135.97V119.777Z" fill="#7743B5"/>
</g>
<defs>
<filter id="filter0_d" x="0" y="0" width="265" height="265" filterUnits="userSpaceOnUse" color-interpolation-filters="sRGB">
<feFlood flood-opacity="0" result="BackgroundImageFix"/>
<feColorMatrix in="SourceAlpha" type="matrix" values="0 0 0 0 0 0 0 0 0 0 0 0 0 0 0 0 0 0 127 0"/>
<feOffset dy="4"/>
<feGaussianBlur stdDeviation="35"/>
<feColorMatrix type="matrix" values="0 0 0 0 0 0 0 0 0 0 0 0 0 0 0 0 0 0 0.07 0"/>
<feBlend mode="normal" in2="BackgroundImageFix" result="effect1_dropShadow"/>
<feBlend mode="normal" in="SourceGraphic" in2="effect1_dropShadow" result="shape"/>
</filter>
</defs>
</svg>
