<svg width="35" height="35" viewBox="0 0 35 35" fill="none" xmlns="http://www.w3.org/2000/svg">
<path d="M25.9398 9.95673C26.6996 8.94713 27.1552 7.69622 27.1552 6.33601C27.1552 3.00314 24.4535 0.301514 21.1207 0.301514C18.5083 0.301514 16.2907 1.96463 15.4507 4.28666L21.1207 9.95666H25.9398V9.95673Z" fill="#ECF0F1"/>
<path d="M11.4657 0.301758L1.81055 9.9569H21.1209L11.4657 0.301758Z" fill="#24AE5F"/>
<path d="M21.1207 2.71558C19.1209 2.71558 17.5 4.33645 17.5 6.3363L21.1207 9.95702C23.1206 9.95702 24.7414 8.33615 24.7414 6.3363C24.7414 4.33645 23.1205 2.71558 21.1207 2.71558Z" fill="#BDC3C7"/>
<path d="M25.9399 9.95667H32.3093C32.4886 9.38519 32.5863 8.77692 32.5863 8.14631C32.5863 4.81345 29.8847 2.11182 26.5518 2.11182C26.197 2.11182 25.8518 2.14859 25.5139 2.20718C26.5289 3.28732 27.1553 4.73682 27.1553 6.33595C27.1552 7.69678 26.7002 8.9483 25.9399 9.95667Z" fill="#CB9080"/>
<path d="M25.9307 9.95662H29.6841C29.9925 9.42376 30.1724 8.80647 30.1724 8.14625C30.1724 6.25864 28.7277 4.71023 26.8841 4.54248C27.0604 5.10911 27.1551 5.71136 27.1551 6.33596C27.155 7.69912 26.694 8.94763 25.9307 9.95662Z" fill="#7F5B53"/>
<path d="M11.4654 3.92261L5.43091 9.9571H17.4999L11.4654 3.92261Z" fill="#128D47"/>
<path d="M32.938 34.6984H2.06199C0.923262 34.6984 0 33.7751 0 32.6364V11.4155C0 10.2768 0.923262 9.35352 2.06199 9.35352H32.9386C34.0767 9.35352 35 10.2768 35 11.4155V32.637C35 33.7751 34.0767 34.6984 32.938 34.6984Z" fill="#805333"/>
<path d="M32.5864 18.4048C32.2533 18.4048 31.9829 18.1344 31.9829 17.8013V16.5944C31.9829 16.2613 32.2533 15.991 32.5864 15.991C32.9195 15.991 33.1899 16.2613 33.1899 16.5944V17.8013C33.1898 18.1345 32.9194 18.4048 32.5864 18.4048Z" fill="#A77657"/>
<path d="M32.5861 13.5775C32.2529 13.5775 31.9826 13.3071 31.9826 12.974V12.3705H31.3791C31.046 12.3705 30.7756 12.1002 30.7756 11.767C30.7756 11.4339 31.046 11.1636 31.3791 11.1636H32.586C32.9191 11.1636 33.1895 11.4339 33.1895 11.767V12.9739C33.1895 13.3071 32.9191 13.5775 32.5861 13.5775Z" fill="#A77657"/>
<path d="M27.7587 12.3705H25.3449C25.0118 12.3705 24.7414 12.1002 24.7414 11.7671C24.7414 11.4339 25.0118 11.1636 25.3449 11.1636H27.7587C28.0918 11.1636 28.3621 11.4339 28.3621 11.7671C28.3621 12.1002 28.0918 12.3705 27.7587 12.3705ZM21.7242 12.3705H19.3104C18.9773 12.3705 18.7069 12.1002 18.7069 11.7671C18.7069 11.4339 18.9773 11.1636 19.3104 11.1636H21.7242C22.0573 11.1636 22.3276 11.4339 22.3276 11.7671C22.3276 12.1002 22.0573 12.3705 21.7242 12.3705ZM15.6897 12.3705H13.2759C12.9428 12.3705 12.6724 12.1002 12.6724 11.7671C12.6724 11.4339 12.9428 11.1636 13.2759 11.1636H15.6897C16.0228 11.1636 16.2932 11.4339 16.2932 11.7671C16.2932 12.1002 16.0228 12.3705 15.6897 12.3705ZM9.65519 12.3705H7.24142C6.9083 12.3705 6.63794 12.1002 6.63794 11.7671C6.63794 11.4339 6.9083 11.1636 7.24142 11.1636H9.65519C9.9883 11.1636 10.2587 11.4339 10.2587 11.7671C10.2587 12.1002 9.9883 12.3705 9.65519 12.3705Z" fill="#A77657"/>
<path d="M2.41378 13.5784C2.08066 13.5784 1.8103 13.308 1.8103 12.9749V11.768C1.8103 11.4349 2.08066 11.1646 2.41378 11.1646H3.62066C3.95378 11.1646 4.22414 11.4349 4.22414 11.768C4.22414 12.1011 3.95378 12.3715 3.62066 12.3715H3.01719V12.975C3.01726 13.308 2.74689 13.5784 2.41378 13.5784Z" fill="#A77657"/>
<path d="M2.41378 27.5032C2.08066 27.5032 1.8103 27.2328 1.8103 26.8997V24.1148C1.8103 23.7817 2.08066 23.5113 2.41378 23.5113C2.7469 23.5113 3.01726 23.7817 3.01726 24.1148V26.8997C3.01726 27.2328 2.7469 27.5032 2.41378 27.5032ZM2.41378 20.5399C2.08066 20.5399 1.8103 20.2696 1.8103 19.9365V17.1516C1.8103 16.8185 2.08066 16.5481 2.41378 16.5481C2.7469 16.5481 3.01726 16.8185 3.01726 17.1516V19.9365C3.01726 20.2696 2.7469 20.5399 2.41378 20.5399Z" fill="#A77657"/>
<path d="M3.62073 32.888H2.41378C2.08066 32.888 1.8103 32.6176 1.8103 32.2845V31.0776C1.8103 30.7445 2.08066 30.4741 2.41378 30.4741C2.74689 30.4741 3.01726 30.7445 3.01726 31.0776V31.6811H3.62073C3.95385 31.6811 4.22421 31.9514 4.22421 32.2846C4.22414 32.6177 3.95378 32.888 3.62073 32.888Z" fill="#A77657"/>
<path d="M27.7587 32.8874H25.3449C25.0118 32.8874 24.7414 32.617 24.7414 32.2839C24.7414 31.9508 25.0118 31.6804 25.3449 31.6804H27.7587C28.0918 31.6804 28.3621 31.9508 28.3621 32.2839C28.3621 32.6171 28.0918 32.8874 27.7587 32.8874ZM21.7242 32.8874H19.3104C18.9773 32.8874 18.7069 32.617 18.7069 32.2839C18.7069 31.9508 18.9773 31.6804 19.3104 31.6804H21.7242C22.0573 31.6804 22.3276 31.9508 22.3276 32.2839C22.3276 32.6171 22.0573 32.8874 21.7242 32.8874ZM15.6897 32.8874H13.2759C12.9428 32.8874 12.6724 32.617 12.6724 32.2839C12.6724 31.9508 12.9428 31.6804 13.2759 31.6804H15.6897C16.0228 31.6804 16.2932 31.9508 16.2932 32.2839C16.2932 32.6171 16.0228 32.8874 15.6897 32.8874ZM9.65519 32.8874H7.24142C6.9083 32.8874 6.63794 32.617 6.63794 32.2839C6.63794 31.9508 6.9083 31.6804 7.24142 31.6804H9.65519C9.9883 31.6804 10.2587 31.9508 10.2587 32.2839C10.2587 32.6171 9.9883 32.8874 9.65519 32.8874Z" fill="#A77657"/>
<path d="M32.5862 32.888H31.3794C31.0462 32.888 30.7759 32.6177 30.7759 32.2846C30.7759 31.9514 31.0462 31.6811 31.3794 31.6811H31.9828V31.0776C31.9828 30.7445 32.2532 30.4741 32.5863 30.4741C32.9194 30.4741 33.1898 30.7445 33.1898 31.0776V32.2845C33.1896 32.6177 32.9193 32.888 32.5862 32.888Z" fill="#A77657"/>
<path d="M32.5864 28.0606C32.2533 28.0606 31.9829 27.7902 31.9829 27.4571V26.2502C31.9829 25.9171 32.2533 25.6467 32.5864 25.6467C32.9195 25.6467 33.1899 25.9171 33.1899 26.2502V27.4571C33.1898 27.7902 32.9194 28.0606 32.5864 28.0606Z" fill="#A77657"/>
<path d="M34.9999 26.25H27.155C24.8221 26.25 22.9309 24.3588 22.9309 22.0259C22.9309 19.693 24.8221 17.8018 27.155 17.8018H34.9999V26.25Z" fill="#5F381F"/>
<path d="M27.1551 23.8363C28.1549 23.8363 28.9655 23.0258 28.9655 22.0259C28.9655 21.0261 28.1549 20.2156 27.1551 20.2156C26.1553 20.2156 25.3447 21.0261 25.3447 22.0259C25.3447 23.0258 26.1553 23.8363 27.1551 23.8363Z" fill="#ECF0F1"/>
<path d="M32.5864 23.8363C32.2533 23.8363 31.9829 23.5659 31.9829 23.2328V20.8191C31.9829 20.4859 32.2533 20.2156 32.5864 20.2156C32.9195 20.2156 33.1899 20.4859 33.1899 20.8191V23.2328C33.1898 23.5659 32.9194 23.8363 32.5864 23.8363Z" fill="#805333"/>
</svg>
