<svg width="30" height="30" viewBox="0 0 30 30" fill="none" xmlns="http://www.w3.org/2000/svg">
<path d="M15 0C6.72914 0 0 6.72914 0 15C0 23.2709 6.72914 30 15 30C23.2709 30 30 23.2709 30 15C30 6.72914 23.2709 0 15 0Z" fill="#303C42"/>
<path d="M15 1.25C22.5818 1.25 28.75 7.41822 28.75 15C28.75 18.0181 27.7611 20.803 26.1062 23.0731C25.9617 22.9791 25.8188 22.8933 25.6739 22.8186C23.169 21.5326 19.2835 20 15 20C10.7166 20 6.83105 21.5326 4.32559 22.8192C4.18104 22.8937 4.03836 22.9792 3.89387 23.0731C2.239 20.8029 1.25 18.0181 1.25 15C1.25 7.41822 7.41822 1.25 15 1.25Z" fill="#E6E6E6"/>
<path d="M15.0002 28.75C10.8892 28.75 7.20395 26.9273 4.68213 24.0582C4.75402 24.0147 4.8265 23.9673 4.89764 23.9307C7.27982 22.7075 10.9664 21.25 15.0002 21.25C19.034 21.25 22.7205 22.7075 25.1021 23.9301C25.1736 23.967 25.2463 24.0144 25.3183 24.0582C22.7964 26.9271 19.1112 28.75 15.0002 28.75Z" fill="#1E88E5"/>
<path d="M15 18.75C19.1421 18.75 22.5 15.3921 22.5 11.25C22.5 7.10786 19.1421 3.75 15 3.75C10.8579 3.75 7.5 7.10786 7.5 11.25C7.5 15.3921 10.8579 18.75 15 18.75Z" fill="#303C42"/>
<path d="M20.6679 27.515C22.453 26.6993 24.0368 25.5159 25.3182 24.0582C25.2461 24.0144 25.1735 23.967 25.102 23.9301C22.7204 22.7075 19.0338 21.25 15.0001 21.25C14.807 21.25 14.6192 21.2684 14.4277 21.2748L20.6679 27.515Z" fill="url(#paint0_linear)"/>
<path d="M15 17.5C18.4518 17.5 21.2501 14.7018 21.2501 11.25C21.2501 7.79823 18.4518 5 15 5C11.5482 5 8.75 7.79823 8.75 11.25C8.75 14.7018 11.5482 17.5 15 17.5Z" fill="#1E88E5"/>
<path opacity="0.1" d="M18.3507 5.99194C18.5954 6.6605 18.7501 7.37271 18.7501 8.12499C18.7501 11.5712 15.9464 14.375 12.5 14.375C11.2651 14.375 10.1199 14.0036 9.14941 13.383C10.0257 15.7772 12.306 17.5 15 17.5C18.4463 17.5 21.25 14.6962 21.25 11.25C21.2501 9.03864 20.0884 7.10323 18.3507 5.99194Z" fill="black"/>
<path d="M15 0C6.72914 0 0 6.72914 0 15C0 23.2709 6.72914 30 15 30C23.2709 30 30 23.2709 30 15C30 6.72914 23.2709 0 15 0Z" fill="url(#paint1_linear)"/>
<defs>
<linearGradient id="paint0_linear" x1="16.4551" y1="19.2492" x2="23.3113" y2="26.1067" gradientUnits="userSpaceOnUse">
<stop stop-opacity="0.1"/>
<stop offset="1" stop-opacity="0"/>
</linearGradient>
<linearGradient id="paint1_linear" x1="1.406" y1="8.66299" x2="28.5942" y2="21.3395" gradientUnits="userSpaceOnUse">
<stop stop-color="white" stop-opacity="0.2"/>
<stop offset="1" stop-color="white" stop-opacity="0"/>
</linearGradient>
</defs>
</svg>
