<svg width="309" height="341" viewBox="0 0 309 341" fill="none" xmlns="http://www.w3.org/2000/svg">
<g clip-path="url(#clip0)">
<path d="M40.26 340.08C62.49 340.08 80.51 322.06 80.51 299.83C80.51 277.6 62.49 259.57 40.26 259.57C18.02 259.58 0 277.6 0 299.84C0 322.06 18.02 340.08 40.26 340.08ZM22.25 324.09C20.39 325.92 17.42 325.94 15.6 324.1C13.79 322.29 13.82 319.32 15.69 317.48C17.55 315.65 20.53 315.64 22.34 317.46C24.16 319.29 24.12 322.25 22.25 324.09ZM70.02 295.06C72.62 295.05 74.69 297.13 74.67 299.72C74.64 302.31 72.5 304.41 69.9 304.41C67.3 304.43 65.22 302.33 65.26 299.74C65.29 297.16 67.42 295.06 70.02 295.06ZM58.25 275.58C60.12 273.75 63.09 273.74 64.91 275.56C66.72 277.38 66.68 280.34 64.81 282.18C62.95 284.01 59.97 284.02 58.16 282.2C56.34 280.38 56.38 277.42 58.25 275.58ZM57.69 317.34C59.56 315.51 62.53 315.5 64.35 317.32C66.17 319.13 66.13 322.1 64.26 323.94C62.4 325.76 59.42 325.77 57.6 323.96C55.79 322.15 55.83 319.17 57.69 317.34ZM47.41 286.4C49.26 284.58 52.25 284.56 54.06 286.38C55.87 288.2 55.84 291.17 53.97 293C52.11 294.83 49.13 294.84 47.32 293.02C45.5 291.21 45.55 288.25 47.41 286.4ZM47.16 304.82C49.03 302.99 52 302.98 53.81 304.8C55.63 306.63 55.59 309.59 53.73 311.42C51.86 313.25 48.88 313.26 47.08 311.45C45.25 309.62 45.29 306.66 47.16 304.82ZM40.72 265.62C43.32 265.62 45.4 267.71 45.36 270.29C45.33 272.88 43.19 274.98 40.59 274.99C37.99 275 35.92 272.9 35.94 270.33C35.98 267.74 38.12 265.63 40.72 265.62ZM39.93 324.68C42.52 324.68 44.6 326.76 44.56 329.35C44.53 331.93 42.39 334.03 39.78 334.05C37.19 334.05 35.11 331.96 35.14 329.38C35.19 326.8 37.33 324.69 39.93 324.68ZM26.81 286.47C28.67 284.64 31.65 284.64 33.46 286.45C35.27 288.28 35.24 291.24 33.37 293.07C31.52 294.91 28.54 294.92 26.72 293.1C24.91 291.28 24.95 288.31 26.81 286.47ZM26.56 304.88C28.43 303.05 31.41 303.04 33.22 304.86C35.03 306.69 34.99 309.65 33.14 311.49C31.27 313.32 28.29 313.33 26.48 311.5C24.66 309.69 24.71 306.73 26.56 304.88ZM16.25 275.73C18.11 273.9 21.09 273.89 22.9 275.71C24.72 277.52 24.68 280.49 22.81 282.32C20.96 284.15 17.97 284.17 16.16 282.34C14.34 280.52 14.39 277.56 16.25 275.73ZM10.62 295.26C13.21 295.25 15.29 297.33 15.26 299.92C15.22 302.5 13.1 304.61 10.49 304.62C7.9 304.63 5.81 302.54 5.84 299.95C5.88 297.36 8.01 295.26 10.62 295.26Z" fill="#454543"/>
<path d="M46.47 148.32H34.02V260.34H46.47V148.32Z" fill="#454543"/>
<path d="M33.17 216.97C33.17 226.31 47.34 226.31 47.34 216.97L57.15 124.87C57.15 115.54 49.59 107.98 40.26 107.98C30.93 107.98 23.37 115.54 23.37 124.87L33.17 216.97ZM40.26 116.84C44.92 116.84 48.71 120.62 48.71 125.28C48.71 129.95 44.93 133.74 40.26 133.74C35.59 133.74 31.81 129.95 31.81 125.28C31.81 120.62 35.59 116.84 40.26 116.84Z" fill="#0F6186"/>
<path d="M170.21 313.09C193.09 315.47 206.76 315.47 229.64 313.09C236.57 312.38 241.54 307.38 240.77 302.25C237.78 281.23 234.79 260.2 231.8 239.18C231.03 234.05 226.25 230.5 221.1 231.03C203.9 232.82 195.95 232.82 178.74 231.03C173.59 230.5 168.81 234.05 168.04 239.18C165.05 260.21 162.05 281.23 159.06 302.25C158.31 307.39 163.29 312.38 170.21 313.09Z" fill="#454543"/>
<path d="M206.17 123.68H193.7V235.88H206.17V123.68Z" fill="#454543"/>
<path d="M192.87 192.46C192.87 201.79 207.06 201.79 207.06 192.46L216.89 100.2C216.89 90.86 209.31 83.28 199.96 83.28C190.62 83.28 183.04 90.85 183.04 100.2L192.87 192.46ZM199.96 92.15C204.64 92.15 208.42 95.94 208.42 100.62C208.42 105.29 204.64 109.07 199.96 109.07C195.3 109.07 191.5 105.29 191.5 100.62C191.5 95.94 195.29 92.15 199.96 92.15Z" fill="#0F6186"/>
<path d="M122.3 151.82H115.28V194.64H122.3V151.82Z" fill="#454543"/>
<path d="M130.77 222.47C127.85 209.29 124.3 197.71 122.1 191.01H115.45V191.8L114.39 195.94C112.31 202.22 109.6 211.03 107.17 220.88C102.87 232.78 98.07 245.85 93.87 256.76C92.67 259.88 87.04 276.08 94.62 287.55C98.53 293.47 105.23 296.96 114.56 297.98C115.67 298.13 116.82 298.23 118.03 298.24V298.26C118.03 298.26 118.05 298.26 118.06 298.26C118.1 298.26 118.14 298.25 118.18 298.25C118.2 298.25 118.21 298.25 118.23 298.25C118.24 298.25 118.26 298.25 118.28 298.25C118.32 298.25 118.36 298.26 118.41 298.26C118.42 298.26 118.43 298.26 118.45 298.26V298.24C118.83 298.23 119.2 298.22 119.57 298.2C119.75 298.23 119.94 298.26 120.14 298.26V298.17C120.74 298.13 121.33 298.06 121.9 297.98C131.23 296.96 137.93 293.47 141.84 287.55C149.42 276.08 143.8 259.88 142.6 256.76C138.62 246.36 134.44 233.95 130.77 222.47ZM120.22 195.79H120.25L132.27 243.45C134.52 260.85 134.25 278 127.57 288.22C133.37 266.83 123.79 214.16 120.19 196.09C120.2 195.98 120.21 195.88 120.22 195.79ZM111.99 213.65C112.48 212.29 112.95 210.95 113.42 209.66C109.5 234.08 104.45 274.37 110.61 290.45C109.26 288.84 108.1 286.97 107.12 284.84C101.77 273.12 102.75 255.02 105.84 237.57L111.99 213.65ZM96.37 286.39C89.35 275.78 94.69 260.45 95.83 257.5C98.39 250.84 101.18 243.36 103.95 235.84C103.8 236.65 103.65 237.46 103.51 238.28L97 263.64C96.86 264.37 93.74 281.41 101.99 291.38C102.3 291.75 102.63 292.08 102.97 292.42C100.23 290.88 98.02 288.87 96.37 286.39ZM103.61 290.05C95.98 280.84 99.03 264.2 99.04 264.09L101.49 254.52C100.65 266.32 101.45 277.43 105.22 285.7C107.17 289.98 109.87 293.28 113.24 295.62C109.24 294.79 106 292.94 103.61 290.05ZM114.55 293.36C104.04 280.54 113.64 219.91 117.5 198.18C117.69 197.66 117.87 197.15 118.04 196.67C115.76 219.11 110.22 280.44 116.34 294.9C115.7 294.54 115.11 294.03 114.55 293.36ZM119.14 295.5C119.11 295.5 119.08 295.5 119.06 295.5C113.07 288.41 116.12 239.5 119.09 207.23C122.07 239.51 125.12 288.39 119.14 295.5ZM122.27 293.82C126.33 281.81 124.44 246.22 122.28 219.69C126.57 246.37 130.71 283.13 123.14 293.15C122.85 293.37 122.57 293.6 122.27 293.82ZM123.84 295.5C124.1 295.25 124.35 294.98 124.58 294.69C124.59 294.68 124.59 294.68 124.59 294.68C133.66 287.32 136.24 272.85 135.63 256.78L137.46 264.03C137.49 264.2 140.53 280.84 132.9 290.05C130.62 292.79 127.58 294.61 123.84 295.5ZM140.13 286.39C138.49 288.88 136.28 290.88 133.53 292.43C133.85 292.1 134.2 291.76 134.51 291.38C142.76 281.41 139.64 264.37 139.49 263.58L134.57 244.06C134.33 242.12 134.06 240.15 133.75 238.2C136.04 244.93 138.39 251.54 140.68 257.49C141.81 260.45 147.15 275.78 140.13 286.39Z" fill="#454543"/>
<path d="M112.38 165.97C112.38 174.43 125.23 174.43 125.23 165.97L134.12 82.4501C134.12 73.9901 127.26 67.1401 118.8 67.1401C110.34 67.1401 103.49 74.0001 103.49 82.4501L112.38 165.97ZM118.79 75.1701C123.02 75.1701 126.45 78.6001 126.45 82.8301C126.45 87.0601 123.02 90.4901 118.79 90.4901C114.56 90.4901 111.14 87.0701 111.14 82.8301C111.14 78.6001 114.57 75.1701 118.79 75.1701Z" fill="#E8AD41"/>
<path d="M294.68 253.05C294.68 253.05 285.68 249.19 286.19 225.35C286.3 220.5 286.68 212.56 287.21 203.04H277.86C278.42 213.99 278.8 222.08 278.81 224.39C278.86 233.45 280.62 246.18 268.73 253.35C267.94 253.81 241.3 276.95 262.98 318.18C284.9 359.81 303.01 310.74 304.25 305.58C305.53 300.43 317.21 272.38 294.68 253.05Z" fill="#454543"/>
<path d="M276.79 214.23C276.79 221.46 287.77 221.46 287.77 214.23L295.38 114.44C295.38 107.21 289.52 101.34 282.28 101.34C275.04 101.34 269.18 107.2 269.18 114.44L276.79 214.23ZM282.27 108.21C285.89 108.21 288.83 111.14 288.83 114.76C288.83 118.38 285.9 121.32 282.27 121.32C278.66 121.32 275.72 118.38 275.72 114.76C275.72 111.14 278.66 108.21 282.27 108.21Z" fill="#E8AD41"/>
<path d="M198.87 -19L198.75 92.08L200.98 92.09L201.11 -19H198.87Z" fill="#3F0909"/>
<path d="M196.177 82.2908L193.957 82.5867L195.557 94.5901L197.777 94.2942L196.177 82.2908Z" fill="#3F0909"/>
<path d="M203.567 82.5184L201.601 94.2849L203.811 94.6541L205.777 82.8875L203.567 82.5184Z" fill="#3F0909"/>
<path d="M282.14 -18.9993L281.924 109.931L284.164 109.934L284.38 -18.9956L282.14 -18.9993Z" fill="#3F0909"/>
<path d="M279.692 99.9228L277.472 100.219L279.07 112.222L281.291 111.926L279.692 99.9228Z" fill="#3F0909"/>
<path d="M287.097 100.111L285.126 111.878L287.335 112.248L289.306 100.481L287.097 100.111Z" fill="#3F0909"/>
<path d="M117.19 -19L117.07 74.7L119.32 74.71L119.43 -19H117.19Z" fill="#3F0909"/>
<path d="M114.505 64.9228L112.285 65.2188L113.885 77.2222L116.105 76.9263L114.505 64.9228Z" fill="#3F0909"/>
<path d="M121.894 65.1378L119.933 76.9055L122.143 77.2735L124.103 65.5058L121.894 65.1378Z" fill="#3F0909"/>
<path d="M39.2478 -19.0112L39.0227 117.049L41.2627 117.053L41.4878 -19.0075L39.2478 -19.0112Z" fill="#3F0909"/>
<path d="M36.8032 107.043L34.5829 107.339L36.1839 119.352L38.4042 119.056L36.8032 107.043Z" fill="#3F0909"/>
<path d="M44.2016 107.25L42.2344 119.017L44.4437 119.386L46.4109 107.62L44.2016 107.25Z" fill="#3F0909"/>
</g>
<defs>
<clipPath id="clip0">
<rect y="-19" width="308.41" height="359.08" fill="white"/>
</clipPath>
</defs>
</svg>
